<svg width="100" height="100" viewBox="0 0 100 100" fill="none" xmlns="http://www.w3.org/2000/svg">
<rect width="100" height="100" rx="20" fill="#00437B"/>
<path fill-rule="evenodd" clip-rule="evenodd" d="M32.95 24.2686C34.446 24.8856 36.1436 24.1802 36.7529 22.7016C37.3656 21.2269 36.6646 19.5123 35.1688 18.8982C33.7024 18.2961 31.9974 19.0153 31.3875 20.496C30.7775 21.9693 31.4829 23.6677 32.95 24.2686Z" fill="#FEFEFE"/>
<path fill-rule="evenodd" clip-rule="evenodd" d="M26.3654 28.1275C27.8618 28.7446 29.559 28.0391 30.1683 26.5605C30.781 25.0858 30.08 23.3712 28.5842 22.7571C27.1178 22.1551 25.4129 22.8741 24.8029 24.3549C24.1929 25.8282 24.8983 27.5265 26.3654 28.1275Z" fill="#FEFEFE"/>
<mask id="mask0_133_933" style="mask-type:luminance" maskUnits="userSpaceOnUse" x="22" y="29" width="7" height="7">
<path fill-rule="evenodd" clip-rule="evenodd" d="M22.6562 29.865H28.4629V35.6718H22.6562V29.865Z" fill="white"/>
</mask>
<g mask="url(#mask0_133_933)">
<path fill-rule="evenodd" clip-rule="evenodd" d="M24.4384 35.4484C25.9347 36.0654 27.6323 35.36 28.2416 33.8812C28.8543 32.4065 28.153 30.6919 26.6575 30.078C25.1911 29.4757 23.4861 30.1951 22.8758 31.6756C22.2658 33.1489 22.9716 34.8475 24.4384 35.4484Z" fill="#FEFEFE"/>
</g>
<path fill-rule="evenodd" clip-rule="evenodd" d="M40.2988 26.5887C41.7948 27.2057 43.4923 26.5003 44.1016 25.0217C44.7143 23.547 44.0134 21.8324 42.5176 21.2183C41.0511 20.6162 39.3462 21.3354 38.7362 22.8161C38.1262 24.2894 38.8317 25.9878 40.2988 26.5887Z" fill="#FEFEFE"/>
<path fill-rule="evenodd" clip-rule="evenodd" d="M66.9239 24.2684C65.4275 24.8854 63.7303 24.18 63.1207 22.7013C62.5083 21.2267 63.2089 19.5121 64.7047 18.898C66.1715 18.2959 67.8764 19.0151 68.4864 20.4958C69.0964 21.9691 68.391 23.6675 66.9239 24.2684Z" fill="#FEFEFE"/>
<path fill-rule="evenodd" clip-rule="evenodd" d="M73.5088 28.1275C72.0122 28.7446 70.315 28.0391 69.7057 26.5605C69.0933 25.0858 69.7939 23.3712 71.2897 22.7571C72.7565 22.1551 74.4614 22.8741 75.0714 24.3549C75.6814 25.8282 74.9756 27.5265 73.5088 28.1275Z" fill="#FEFEFE"/>
<mask id="mask1_133_933" style="mask-type:luminance" maskUnits="userSpaceOnUse" x="71" y="29" width="7" height="7">
<path fill-rule="evenodd" clip-rule="evenodd" d="M71.4114 29.865H77.2179V35.6718H71.4114V29.865Z" fill="white"/>
</mask>
<g mask="url(#mask1_133_933)">
<path fill-rule="evenodd" clip-rule="evenodd" d="M75.4357 35.4484C73.9397 36.0654 72.2421 35.36 71.6328 33.8812C71.0201 32.4065 71.721 30.6919 73.2169 30.078C74.6833 29.4757 76.3882 30.1951 76.9982 31.6756C77.6085 33.1489 76.9028 34.8475 75.4357 35.4484Z" fill="#FEFEFE"/>
</g>
<path fill-rule="evenodd" clip-rule="evenodd" d="M59.5762 26.5887C58.0799 27.2057 56.3827 26.5003 55.773 25.0217C55.1606 23.547 55.8613 21.8324 57.3571 21.2183C58.8238 20.6162 60.5288 21.3354 61.1388 22.8161C61.7488 24.2894 61.0433 25.9878 59.5762 26.5887Z" fill="#FEFEFE"/>
<path fill-rule="evenodd" clip-rule="evenodd" d="M51.4707 19.0836L51.4795 19.0752L55.1554 21.0057V15.5879L51.4838 16.7502L51.4735 16.7392C51.3707 16.6042 51.2515 16.4833 51.117 16.3793L51.107 16.369L52.5839 11.719L49.9314 11.7193L47.2779 11.719L48.7551 16.369L48.745 16.3793C48.611 16.4833 48.4911 16.6042 48.389 16.7392L48.378 16.7502L44.707 15.5879V21.0057L48.383 19.0752L48.3917 19.0836C48.5006 19.226 48.6282 19.3525 48.7716 19.4599L46.6605 25.8285C46.6579 25.8365 46.6551 25.8444 46.6527 25.8519L46.6505 25.8586L46.6512 25.8593C46.553 26.1773 46.5004 26.5147 46.5004 26.8647C46.5004 28.5879 47.7716 30.0101 49.4272 30.2544C49.4518 30.2582 49.4759 30.2625 49.5008 30.2655C49.6418 30.2835 49.7845 30.2955 49.9307 30.2955H49.9314H49.9318C50.0774 30.2955 50.2203 30.2835 50.3617 30.2655C50.3861 30.2625 50.4104 30.2582 50.4353 30.2544C52.0902 30.0101 53.3621 28.5879 53.3621 26.8647C53.3621 26.5147 53.3088 26.1773 53.2113 25.8593L53.2116 25.8586L53.2096 25.8519C53.207 25.8444 53.2042 25.8365 53.2015 25.8285L51.0909 19.4599C51.2339 19.3525 51.3619 19.226 51.4707 19.0836Z" fill="#FEFEFE"/>
<path fill-rule="evenodd" clip-rule="evenodd" d="M49.9307 50.2485C56.9097 50.2485 63.5159 50.7215 69.4017 51.5638C71.0728 44.5392 73.1062 40.514 75.2058 37.6481L71.252 36.2415C71.6454 38.2488 71.7082 39.1831 71.2678 40.4736C70.6158 39.8361 69.9979 38.6639 69.5155 36.8723L67.6003 43.252C68.7658 42.4492 69.6646 41.9307 70.6931 41.9058C68.8686 45.8343 66.5913 46.8454 65.1154 46.5726C63.313 46.2417 62.4848 44.6348 62.7642 43.2723C63.1787 41.3401 65.1608 40.8366 66.0868 43.0834C67.8572 39.4717 64.8534 38.3464 62.92 39.4149C65.8893 36.4534 66.2291 33.8211 63.8324 30.6355C60.493 33.1879 60.4539 35.7158 61.9568 39.2722C60.0066 37.0405 56.9725 38.2386 58.0685 41.8447C59.4749 39.6675 61.3363 41.037 61.0441 43.1046C60.7974 44.9069 58.4179 46.3623 55.4554 46.1043C51.2097 45.7194 50.9569 42.7895 50.8511 40.3651C51.895 40.1716 53.7743 41.1389 55.3768 43.3894L55.9673 36.6227C54.2237 38.4395 52.6396 38.7841 50.88 38.8398C51.4658 37.0126 54.1578 34.0182 54.1578 34.0182L50.2465 34.0179H50.2444H50.2427L45.712 34.0182C45.712 34.0182 48.4041 37.0126 48.9895 38.8398C47.2302 38.7841 45.6462 38.4395 43.9022 36.6227L44.4931 43.3894C46.0959 41.1389 47.9749 40.1716 49.0187 40.3651C48.9133 42.7895 48.6604 45.7194 44.4145 46.1043C41.4519 46.3623 39.0728 44.9069 38.8257 43.1046C38.5335 41.037 40.395 39.6675 41.8015 41.8447C42.8977 38.2386 39.8629 37.0405 37.9134 39.2722C39.4161 35.7158 39.3765 33.1879 36.0375 30.6355C33.6406 33.8211 33.9802 36.4534 36.9495 39.4149C35.0163 38.3464 32.0127 39.4717 33.7833 43.0834C34.709 40.8366 36.6915 41.3401 37.106 43.2723C37.3854 44.6348 36.5564 46.2417 34.7548 46.5726C33.2789 46.8454 31.0013 45.8343 29.177 41.9058C30.2056 41.9307 31.1036 42.4492 32.2699 43.252L30.3547 36.8723C29.8716 38.6639 29.2544 39.8361 28.6021 40.4736C28.1613 39.1831 28.2244 38.2488 28.6174 36.2415L24.6641 37.6481C26.764 40.5136 28.7968 44.5385 30.4675 51.5622C36.3515 50.7208 42.9545 50.2485 49.9307 50.2485Z" fill="#FEFEFE"/>
<path d="M39.8516 71.8848C39.8516 73.3522 39.651 74.6921 39.25 75.9043C38.8581 77.1074 38.2656 78.1374 37.4727 78.9941C36.6888 79.8509 35.7044 80.5163 34.5195 80.9902C33.3346 81.4551 31.9492 81.6875 30.3633 81.6875H23.1445V62.082H30.3633C31.9492 62.082 33.3346 62.319 34.5195 62.793C35.7044 63.2578 36.6888 63.9186 37.4727 64.7754C38.2656 65.6322 38.8581 66.6667 39.25 67.8789C39.651 69.082 39.8516 70.4173 39.8516 71.8848ZM35.7363 71.502C35.7363 70.6725 35.6315 69.9023 35.4219 69.1914C35.2214 68.4714 34.8932 67.847 34.4375 67.3184C33.9909 66.7897 33.4076 66.375 32.6875 66.0742C31.9674 65.7643 31.097 65.6094 30.0762 65.6094H27.1094V78.1602H30.0762C31.0879 78.1602 31.9538 78.0098 32.6738 77.709C33.3939 77.3991 33.9772 76.9798 34.4238 76.4512C34.8796 75.9134 35.2122 75.2845 35.4219 74.5645C35.6315 73.8444 35.7363 73.0742 35.7363 72.2539V71.502ZM43.0508 62.082H50.8848C51.8965 62.082 52.8079 62.2507 53.6191 62.5879C54.4395 62.916 55.1322 63.3717 55.6973 63.9551C56.2624 64.5293 56.6953 65.2129 56.9961 66.0059C57.306 66.7988 57.4609 67.6602 57.4609 68.5898C57.4609 69.5195 57.2923 70.3809 56.9551 71.1738C56.627 71.9668 56.1576 72.6549 55.5469 73.2383C54.9453 73.8125 54.2207 74.2637 53.373 74.5918C52.5254 74.9199 51.5911 75.084 50.5703 75.084H47.0156V81.6875H43.0508V62.082ZM53.373 68.5215C53.373 68.0566 53.291 67.6465 53.127 67.291C52.9629 66.9264 52.7259 66.6165 52.416 66.3613C52.1061 66.1061 51.7324 65.9147 51.2949 65.7871C50.8574 65.6504 50.3652 65.582 49.8184 65.582H47.0156V71.584H49.8184C50.3652 71.584 50.8574 71.5202 51.2949 71.3926C51.7324 71.2559 52.1061 71.0599 52.416 70.8047C52.7259 70.5495 52.9629 70.2441 53.127 69.8887C53.291 69.5241 53.373 69.1094 53.373 68.6445V68.5215ZM61.3164 76.1777C61.5716 76.4694 61.8815 76.7565 62.2461 77.0391C62.6107 77.3216 63.0117 77.5768 63.4492 77.8047C63.8958 78.0234 64.3789 78.2012 64.8984 78.3379C65.418 78.4655 65.9785 78.5293 66.5801 78.5293C67.7012 78.5293 68.5579 78.2969 69.1504 77.832C69.752 77.3581 70.0527 76.7839 70.0527 76.1094C70.0527 75.4076 69.7884 74.8743 69.2598 74.5098C68.7402 74.1452 67.9108 73.8581 66.7715 73.6484L66.1562 73.5391C65.3359 73.3932 64.5202 73.2018 63.709 72.9648C62.8978 72.7279 62.1641 72.3861 61.5078 71.9395C60.8516 71.4928 60.3184 70.9232 59.9082 70.2305C59.498 69.5286 59.293 68.6445 59.293 67.5781C59.293 66.9583 59.4297 66.3112 59.7031 65.6367C59.9766 64.9531 60.4095 64.3288 61.002 63.7637C61.6035 63.1895 62.3737 62.7201 63.3125 62.3555C64.2604 61.9909 65.4043 61.8086 66.7441 61.8086C68.3301 61.8086 69.7428 62.0729 70.9824 62.6016C72.2311 63.1211 73.2383 63.8092 74.0039 64.666L71.3652 67.127C70.8275 66.5345 70.1348 66.0697 69.2871 65.7324C68.4486 65.3952 67.5827 65.2266 66.6895 65.2266C65.6595 65.2266 64.8529 65.4225 64.2695 65.8145C63.6953 66.2064 63.4082 66.7168 63.4082 67.3457C63.4082 67.7559 63.4993 68.0977 63.6816 68.3711C63.873 68.6445 64.1374 68.8724 64.4746 69.0547C64.8118 69.2279 65.2174 69.3737 65.6914 69.4922C66.1654 69.6107 66.694 69.7292 67.2773 69.8477L67.5918 69.9023C68.3757 70.0482 69.1549 70.235 69.9297 70.4629C70.7044 70.6816 71.4062 71.0098 72.0352 71.4473C72.6732 71.8757 73.1882 72.4408 73.5801 73.1426C73.972 73.8353 74.168 74.724 74.168 75.8086C74.168 76.793 73.9629 77.6634 73.5527 78.4199C73.1426 79.1764 72.6003 79.8236 71.9258 80.3613C71.2513 80.89 70.472 81.291 69.5879 81.5645C68.7038 81.8288 67.7832 81.9609 66.8262 81.9609C65.86 81.9609 64.9622 81.8789 64.1328 81.7148C63.3125 81.5508 62.5651 81.3184 61.8906 81.0176C61.2253 80.7168 60.6283 80.3796 60.0996 80.0059C59.5801 79.6322 59.1243 79.2311 58.7324 78.8027L61.3164 76.1777Z" fill="white"/>
</svg>
