<svg width="110" height="50" viewBox="0 0 110 50" fill="none" xmlns="http://www.w3.org/2000/svg">
<rect width="110" height="50" fill="none"/>
<g id="Diet report print page v1">
<rect width="595" height="842" transform="translate(-40 -28)" fill="none"/>
<g id="Frame 582">
<g id="Group 165">
<g id="Group">
<g id="Line">
<path id="Vector" d="M1.18497 0H0V49.5985H1.18497V0Z" fill="#1D1D1B"/>
</g>
<g id="Name">
<g id="Group_2">
<path id="Vector_2" d="M6.42139 24.8618H7.73182V29.0998H12.9206V24.8618H14.231V34.7152H12.9206V30.2011H7.73182V34.7152H6.42139V24.8618Z" fill="#1D1D1B"/>
<path id="Vector_3" d="M16.0122 24.8619H17.8078L20.9138 33.1428L24.0337 24.8619H25.8293V34.7153H24.5858V26.5181H24.5579L21.4798 34.7153H20.3617L17.2836 26.5181H17.2557V34.7153H16.0122V24.8619Z" fill="#1D1D1B"/>
<path id="Vector_4" d="M31.5645 24.8619H35.8833C37.8573 24.8619 38.9057 25.9381 38.9057 27.7728C38.9057 29.6074 37.8573 30.6975 35.8833 30.6836H32.8749V34.7125H31.5645V24.8591V24.8619ZM32.8749 29.5823H35.4428C36.9344 29.5962 37.5952 28.9466 37.5952 27.7755C37.5952 26.6045 36.9317 25.9688 35.4428 25.9688H32.8749V29.5851V29.5823Z" fill="#1D1D1B"/>
<path id="Vector_5" d="M39.8016 27.5804H40.9057V29.086H40.9336C41.4996 27.9261 42.2859 27.3741 43.5545 27.4159V28.6594C41.6641 28.6594 40.9726 29.7217 40.9726 31.5452V34.7181H39.7988V27.5832L39.8016 27.5804Z" fill="#1D1D1B"/>
<path id="Vector_6" d="M45.4077 26.2978H44.2339V24.8619H45.4077V26.2978ZM44.2367 27.5804H45.4105V34.7153H44.2367V27.5804Z" fill="#1D1D1B"/>
<path id="Vector_7" d="M47.6079 32.4682C47.6497 33.5165 48.5726 33.8483 49.5261 33.8483C50.2566 33.8483 51.252 33.6838 51.252 32.786C51.252 30.9514 46.5874 32.1921 46.5874 29.4458C46.5874 28.0099 47.9954 27.416 49.2501 27.416C50.8505 27.416 52.0662 27.9123 52.1749 29.6521H51.0011C50.9314 28.7404 50.1033 28.4504 49.3449 28.4504C48.6423 28.4504 47.8254 28.6428 47.8254 29.3621C47.8254 30.1902 49.0689 30.3547 50.1591 30.6057C51.3329 30.8678 52.4927 31.2692 52.4927 32.6354C52.4927 34.3474 50.9063 34.8855 49.4564 34.8855C47.856 34.8855 46.5038 34.2358 46.4341 32.4709H47.6079V32.4682Z" fill="#1D1D1B"/>
<path id="Vector_8" d="M56.5742 27.416C58.8382 27.416 60.0371 29.0582 60.0371 31.1577C60.0371 33.2572 58.8354 34.8827 56.5742 34.8827C54.313 34.8827 53.1113 33.2405 53.1113 31.1577C53.1113 29.075 54.313 27.416 56.5742 27.416ZM56.5742 33.8483C57.8038 33.8483 58.7964 32.8836 58.7964 31.1577C58.7964 29.4319 57.8038 28.4532 56.5742 28.4532C55.3446 28.4532 54.3521 29.4319 54.3521 31.1577C54.3521 32.8836 55.3446 33.8483 56.5742 33.8483Z" fill="#1D1D1B"/>
<path id="Vector_9" d="M61.0967 27.5805H62.2008V28.7125H62.2287C62.725 27.8287 63.5112 27.416 64.5484 27.416C66.4248 27.416 67.0048 28.4922 67.0048 30.0257V34.7182H65.831V29.8863C65.831 29.0025 65.2789 28.4504 64.3811 28.4504C62.9592 28.4504 62.2705 29.404 62.2705 30.6865V34.7154H61.0967V27.5805Z" fill="#1D1D1B"/>
<path id="Vector_10" d="M77.7667 33.4885C77.1728 34.4142 76.0547 34.8826 74.9785 34.8826C72.3158 34.8826 71.9004 32.9922 71.9004 32.192C71.9004 30.6613 72.9487 29.8723 74.2062 29.2115C73.6541 28.4391 73.116 27.8871 73.116 26.8917C73.116 25.8294 73.9023 24.8619 75.3382 24.8619C76.5678 24.8619 77.7248 25.5395 77.7248 26.8778C77.7248 28.0655 76.8271 28.8797 75.8763 29.4317L77.6579 31.5981C77.8364 31.1018 77.9479 30.5916 77.9758 30.0646H79.0938C78.9823 31.2524 78.8457 31.5981 78.4302 32.4931L80.3485 34.7153H78.8178L77.7695 33.4857L77.7667 33.4885ZM74.8558 29.9559C73.9302 30.4661 73.1439 31.0182 73.1439 32.1781C73.1439 33.1706 74.0696 33.8482 75.0203 33.8482C75.9181 33.8482 76.6347 33.3937 77.117 32.6743L74.853 29.9559H74.8558ZM76.5538 26.9475C76.5538 26.3815 76.1272 25.8991 75.4218 25.8991C74.8698 25.8991 74.2898 26.2309 74.2898 26.9475C74.2898 27.5414 74.814 28.1213 75.2434 28.6594C75.8094 28.2858 76.5538 27.8034 76.5538 26.9475Z" fill="#1D1D1B"/>
<path id="Vector_11" d="M6.42139 39.7088H10.7402C12.7143 39.7088 13.7626 40.7851 13.7626 42.6197C13.7626 44.4543 12.7143 45.5444 10.7402 45.5305H7.73182V49.5594H6.42139V39.7061V39.7088ZM7.73461 44.4292H10.3025C11.7942 44.4431 12.455 43.7935 12.455 42.6225C12.455 41.4514 11.7914 40.8157 10.3025 40.8157H7.73461V44.432V44.4292Z" fill="#1D1D1B"/>
<path id="Vector_12" d="M14.66 42.4273H15.7641V43.9329H15.792C16.358 42.7731 17.1443 42.221 18.4129 42.2628V43.5063C16.5225 43.5063 15.831 44.5686 15.831 46.3921V49.565H14.6572V42.4301L14.66 42.4273Z" fill="#1D1D1B"/>
<path id="Vector_13" d="M22.0068 42.2627C24.2708 42.2627 25.4697 43.9049 25.4697 46.0044C25.4697 48.1039 24.268 49.7294 22.0068 49.7294C19.7456 49.7294 18.5439 48.0871 18.5439 46.0044C18.5439 43.9216 19.7456 42.2627 22.0068 42.2627ZM22.0068 48.695C23.2364 48.695 24.229 47.7303 24.229 46.0044C24.229 44.2785 23.2364 43.2999 22.0068 43.2999C20.7773 43.2999 19.7847 44.2785 19.7847 46.0044C19.7847 47.7303 20.7773 48.695 22.0068 48.695Z" fill="#1D1D1B"/>
<path id="Vector_14" d="M26.5459 39.7087H27.7197V43.3947H27.7476C28.1351 42.6084 29.0301 42.2627 30.0255 42.2627C32.2198 42.2627 33.31 44.0025 33.31 46.0155C33.31 48.0286 32.2337 49.7294 30.0534 49.7294C29.3368 49.7294 28.2606 49.4533 27.7476 48.6113H27.7197V49.5649H26.5459V39.7115V39.7087ZM29.8582 43.2971C28.2718 43.2971 27.6779 44.6633 27.6779 45.9877C27.6779 47.3817 28.3136 48.6922 29.9279 48.6922C31.5423 48.6922 32.0664 47.326 32.0664 45.9319C32.0664 44.5378 31.375 43.2971 29.8582 43.2971Z" fill="#1D1D1B"/>
<path id="Vector_15" d="M40.6596 49.537C40.4533 49.6625 40.1633 49.7294 39.8176 49.7294C39.2098 49.7294 38.825 49.3976 38.825 48.6253C38.1754 49.3976 37.3083 49.7294 36.3129 49.7294C35.0164 49.7294 33.9541 49.1634 33.9541 47.7275C33.9541 46.1131 35.1558 45.7535 36.3686 45.5332C37.6512 45.2711 38.7692 45.3826 38.7692 44.4849C38.7692 43.4504 37.9133 43.2971 37.1828 43.2971C36.1902 43.2971 35.4569 43.601 35.4012 44.6494H34.2273C34.297 42.8817 35.6493 42.2627 37.2497 42.2627C38.5323 42.2627 39.9263 42.5527 39.9263 44.2228V47.8948C39.9263 48.4468 39.9263 48.695 40.2999 48.695C40.4115 48.695 40.5341 48.6671 40.6596 48.6253V49.537ZM38.7553 45.8789C37.8436 46.5565 35.1948 45.8929 35.1948 47.6466C35.1948 48.4189 35.8584 48.695 36.575 48.695C38.1196 48.695 38.7553 47.7414 38.7553 47.0806V45.8789Z" fill="#1D1D1B"/>
<path id="Vector_16" d="M43.0184 42.4272H44.4403V43.4616H43.0184V47.892C43.0184 48.444 43.1689 48.5277 43.9022 48.5277H44.4403V49.5621H43.5425C42.3269 49.5621 41.8445 49.314 41.8445 48.0035V43.4616H40.6289V42.4272H41.8445V40.2887H43.0184V42.4272Z" fill="#1D1D1B"/>
<path id="Vector_17" d="M46.5425 41.1446H45.3687V39.7087H46.5425V41.1446ZM45.3714 42.4272H46.5453V49.5621H45.3714V42.4272Z" fill="#1D1D1B"/>
<path id="Vector_18" d="M51.0898 42.2627C53.3538 42.2627 54.5527 43.9049 54.5527 46.0044C54.5527 48.1039 53.351 49.7294 51.0898 49.7294C48.8286 49.7294 47.627 48.0871 47.627 46.0044C47.627 43.9216 48.8286 42.2627 51.0898 42.2627ZM51.0898 48.695C52.3194 48.695 53.312 47.7303 53.312 46.0044C53.312 44.2785 52.3194 43.2999 51.0898 43.2999C49.8603 43.2999 48.8677 44.2785 48.8677 46.0044C48.8677 47.7303 49.8603 48.695 51.0898 48.695Z" fill="#1D1D1B"/>
<path id="Vector_19" d="M55.6094 42.4272H56.7135V43.5592H56.7414C57.2377 42.6753 58.0239 42.2627 59.0611 42.2627C60.9375 42.2627 61.5175 43.3389 61.5175 44.8724V49.5649H60.3437V44.733C60.3437 43.8492 59.7916 43.2971 58.8938 43.2971C57.4719 43.2971 56.7832 44.2506 56.7832 45.5332V49.5621H55.6094V42.4272Z" fill="#1D1D1B"/>
<path id="Vector_20" d="M72.7372 42.5945C72.5866 41.1726 71.6609 40.5787 70.2947 40.5787C69.1767 40.5787 68.0865 40.9802 68.0865 42.2627C68.0865 44.6912 74.3933 42.9793 74.3933 46.8576C74.3933 48.9543 72.3356 49.7963 70.5429 49.7963C68.3346 49.7963 66.4722 48.7062 66.4722 46.3195H67.7157C67.7157 47.9757 69.0958 48.6922 70.5875 48.6922C71.7752 48.6922 73.0857 48.3186 73.0857 46.8966C73.0857 44.1921 66.7789 45.971 66.7789 42.3547C66.7789 40.3668 68.5466 39.469 70.3533 39.469C72.3691 39.469 73.9137 40.4225 73.9834 42.5889H72.7399L72.7372 42.5945Z" fill="#1D1D1B"/>
<path id="Vector_21" d="M81.5786 47.3009C81.2607 48.8874 80.1427 49.7294 78.5283 49.7294C76.2504 49.7294 75.1742 48.1429 75.1045 45.9765C75.1045 43.8241 76.5125 42.2627 78.4586 42.2627C80.9847 42.2627 81.757 44.6215 81.6873 46.3473H76.3452C76.3034 47.5909 77.0088 48.695 78.5674 48.695C79.546 48.695 80.2096 48.2405 80.4159 47.3009H81.5758H81.5786ZM80.4466 45.3129C80.3769 44.1949 79.5628 43.2971 78.3889 43.2971C77.2151 43.2971 76.4149 44.2088 76.3452 45.3129H80.4438H80.4466Z" fill="#1D1D1B"/>
<path id="Vector_22" d="M82.6362 42.4273H83.7403V43.9329H83.7682C84.3342 42.7731 85.1205 42.221 86.3919 42.2628V43.5063C84.5015 43.5063 83.81 44.5686 83.81 46.3921V49.565H82.6362V42.4301V42.4273Z" fill="#1D1D1B"/>
<path id="Vector_23" d="M90.6178 49.5623H89.3631L86.7144 42.4274H88.0248L90.0267 48.3745H90.0546L92.0007 42.4274H93.2303L90.6206 49.5623H90.6178Z" fill="#1D1D1B"/>
<path id="Vector_24" d="M95.1767 41.1446H94.0029V39.7087H95.1767V41.1446ZM94.0057 42.4272H95.1795V49.5621H94.0057V42.4272Z" fill="#1D1D1B"/>
<path id="Vector_25" d="M101.511 44.7191C101.332 43.8213 100.724 43.2971 99.743 43.2971C98.045 43.2971 97.5209 44.6494 97.5209 46.0853C97.5209 47.4096 98.1147 48.695 99.6036 48.695C100.75 48.695 101.41 48.0453 101.564 46.9552H102.765C102.503 48.7089 101.427 49.7294 99.6175 49.7294C97.4372 49.7294 96.2773 48.2238 96.2773 46.0853C96.2773 43.9467 97.3814 42.2627 99.6454 42.2627C101.274 42.2627 102.542 43.0211 102.724 44.7191H101.508H101.511Z" fill="#1D1D1B"/>
<path id="Vector_26" d="M109.887 47.3009C109.569 48.8874 108.451 49.7294 106.837 49.7294C104.559 49.7294 103.483 48.1429 103.413 45.9765C103.413 43.8241 104.821 42.2627 106.767 42.2627C109.293 42.2627 110.066 44.6215 109.996 46.3473H104.654C104.612 47.5909 105.317 48.695 106.876 48.695C107.855 48.695 108.518 48.2405 108.725 47.3009H109.884H109.887ZM108.755 45.3129C108.685 44.1949 107.871 43.2971 106.698 43.2971C105.524 43.2971 104.724 44.2088 104.654 45.3129H108.752H108.755Z" fill="#1D1D1B"/>
</g>
</g>
</g>
<g id="Group 163">
<g id="Group_3">
<path id="Vector_27" d="M26.4133 10.8152L26.3603 10.8096L26.2181 10.4276C26.285 10.344 26.3185 10.2074 26.2181 10.1377C26.0815 10.0847 25.6911 9.63858 25.5768 9.92576C25.5266 9.94249 25.2199 9.96201 25.1948 10.0178C25.0471 9.78357 24.9216 9.53542 24.8296 9.25939C24.8881 8.93875 25.7385 8.54005 25.7385 8.54005C25.7385 8.54005 25.4987 8.19432 25.4011 7.99915C25.3593 8.09394 25.3203 8.05491 25.2255 8.09673C25.6967 7.26029 25.7971 6.15896 25.1725 5.36713C25.1084 5.23051 25.1391 5.04928 25.0749 4.91545C24.9662 4.77325 24.8909 4.49165 24.7013 4.46098C24.7013 4.70912 24.6762 4.95169 24.7961 5.18311C24.9244 5.34482 24.6205 5.47865 24.5285 5.35319C24.7097 5.33367 24.7404 5.29742 24.6762 5.19426C23.8983 5.01861 23.4634 5.56787 22.7189 5.65152C22.6548 5.65152 22.5963 5.67383 22.5572 5.73516C22.1 6.35135 23.126 5.93033 23.2152 6.34019C23.0424 6.48239 23.0201 6.38759 22.8584 6.34856C22.6269 6.35692 22.4039 6.42942 22.6911 6.62459C22.5154 6.90061 22.5238 6.9982 22.1641 7.02329C22.3202 7.24356 22.2868 7.55862 22.3258 7.80955C22.0693 7.85695 21.8964 7.97963 21.8909 8.25287C21.7765 8.27796 21.6511 8.21941 21.5702 8.34209C21.4085 8.20826 21.2245 8.18595 21.0321 8.18038C20.9401 8.11067 20.7115 7.94617 20.4661 7.8207C20.5135 7.63947 20.5609 7.4694 20.6027 7.31047C20.6752 7.26586 20.9317 7.10136 20.9987 7.05954C20.9652 6.98983 20.8286 6.71659 20.7923 6.64131C21.2524 5.06322 21.4001 4.974 21.6316 4.94054L21.6427 4.89593L20.7951 4.62548L20.7812 4.68124C20.9959 4.83738 21.0656 5.09389 20.968 5.3978C20.7421 5.30021 20.6111 5.08552 20.6362 4.89314C20.6306 4.89314 20.5804 4.87641 20.5804 4.87641L20.296 5.81881C20.296 5.81881 20.3379 5.82996 20.3406 5.83275C20.4522 5.67104 20.6473 5.58182 20.8704 5.61806C20.6083 6.45451 19.4261 6.19242 19.638 5.48423C19.7886 5.19147 20.0758 5.37828 19.9364 5.68498C20.5999 5.45356 20.2068 4.50001 19.6408 5.0688C19.8276 4.68403 19.9336 4.38291 19.6994 4.01208C19.3955 4.20726 19.3174 4.56414 19.3759 5.03534C19.0023 4.17937 18.3499 5.06043 18.8797 5.50654C18.7821 4.87084 19.5655 5.29185 19.0358 5.80208C18.5311 6.15896 17.9094 5.7491 17.8899 5.11619C18.1826 5.14129 18.4057 5.31415 18.4336 5.53163C18.4391 5.53163 18.4865 5.53163 18.4865 5.53163L18.5228 4.45261C18.5228 4.45261 18.4614 4.44983 18.4559 4.44983C18.4112 4.6673 18.1743 4.85411 17.8731 4.85968C17.8926 4.52789 18.085 4.26859 18.3304 4.22677V4.16543H17.0869V4.22677C17.3322 4.26859 17.5246 4.52789 17.5441 4.85968C17.243 4.85411 17.006 4.67009 16.9614 4.44983C16.9558 4.44983 16.8945 4.45261 16.8945 4.45261L16.9307 5.53163C16.9307 5.53163 16.9781 5.53163 16.9837 5.53163C17.0144 5.31415 17.2374 5.14129 17.5274 5.11619C17.5107 5.74632 16.8861 6.15896 16.3815 5.80208C15.8517 5.28906 16.6352 4.87084 16.5376 5.50654C17.0674 5.06043 16.4149 4.17937 16.0413 5.03534C16.0999 4.56135 16.0218 4.20726 15.7179 4.01208C15.4837 4.38291 15.5896 4.68403 15.7764 5.0688C15.2077 4.50001 14.8201 5.45356 15.4809 5.68498C15.3443 5.37828 15.6287 5.19147 15.7792 5.48423C15.9911 6.19521 14.809 6.45451 14.5469 5.61806C14.7727 5.58182 14.9651 5.67104 15.0766 5.83275C15.0822 5.83275 15.1212 5.81881 15.1212 5.81881L14.8368 4.87641C14.8368 4.87641 14.7839 4.89035 14.7811 4.89314C14.8062 5.08552 14.6751 5.30021 14.4493 5.3978C14.3517 5.09389 14.4214 4.83738 14.6361 4.68124L14.6221 4.62548L13.7745 4.89593L13.7857 4.94054C14.0171 4.974 14.1677 5.06322 14.6249 6.64131C14.5859 6.71659 14.4521 6.98705 14.4186 7.05954C14.4827 7.10136 14.7448 7.26586 14.8145 7.31047C14.8536 7.45546 14.8954 7.6088 14.94 7.7733C14.94 7.7733 14.9428 7.7733 14.9456 7.7733C14.9456 7.77888 14.9428 7.78167 14.94 7.7733C13.7968 8.30584 14.0561 8.67109 13.1779 8.56514C13.0998 8.74637 13.0245 8.9276 12.8461 9.05028C12.8126 8.77146 12.69 8.55678 12.5255 8.35882C12.4446 8.26402 12.3331 8.36997 12.2132 8.37833C11.9762 8.89693 11.8089 8.42852 11.3907 8.70176C11.4074 8.94433 11.4436 9.18411 11.5775 9.40716C11.2652 9.38486 11.0059 9.30121 10.7996 9.15344C9.86555 10.1962 8.8897 11.1999 8.09229 12.3459C7.6657 12.9091 6.52534 12.5829 6.82646 11.805C6.96308 11.239 7.7828 11.3589 7.73261 11.9221C8.1369 11.4732 7.8776 11.0243 7.25863 11.1247C7.82741 10.8793 8.16757 11.3449 8.6778 10.7064C8.28746 10.7148 7.95566 10.5921 7.56532 10.6813C8.05883 10.3858 8.73635 10.8235 9.15736 10.0094C8.78932 10.0484 8.45753 10.2018 8.07834 10.2576C10.3563 8.08558 8.16478 7.97684 8.44359 7.04002C8.26515 7.19058 8.16199 7.34114 8.24563 7.54468C7.7354 7.33278 6.97981 7.39412 6.7707 6.77515C6.72051 7.65899 7.10807 7.59486 7.77443 7.77609C7.46774 7.73985 7.16383 7.73706 6.87386 7.63111C6.93241 8.02703 7.23353 8.11067 7.58763 8.07443C7.2419 8.26681 7.31997 8.76031 7.67127 8.9276C7.44543 7.65063 9.3609 8.08837 8.48541 9.26218C8.08113 9.86721 7.49283 10.3161 6.99933 10.8431C6.90732 10.6814 6.80973 10.5224 6.59505 10.5447C6.97145 10.9797 6.54765 11.4509 6.44727 11.897C6.30229 12.449 6.79022 12.9202 7.31439 12.9844C7.10528 13.2325 7.08855 13.4528 7.25026 13.6535C7.40919 12.8422 8.58579 13.0234 8.69731 12.1451C8.71683 12.042 8.76702 11.9611 8.88133 11.9137C8.35158 12.5132 9.62577 13.7846 8.42686 13.9323C8.25679 13.9379 8.21218 14.1164 8.30697 14.2446C7.81068 14.2195 7.67406 14.4091 7.59878 14.8747C7.81626 14.819 8.01979 14.766 8.22612 14.713C8.01143 15.279 7.52071 14.6796 7.60157 15.6861C7.80232 15.5913 7.98912 15.4881 8.17314 15.3738C8.34879 15.937 7.27536 15.6945 8.08113 16.595C8.13132 16.4277 8.3488 16.082 8.45753 16.0067C8.35716 16.2911 8.38225 16.6173 8.7001 16.7456C8.71404 16.6703 8.72798 16.6034 8.74192 16.5365C8.75587 16.5365 8.75308 16.5365 8.76981 16.5365C8.81442 16.7233 8.82278 16.9854 9.00401 17.0941C9.06535 17.1192 9.09602 17.1527 9.11554 17.214C9.149 17.3199 9.24658 17.3478 9.34138 17.359C9.46127 17.3841 9.48915 17.2475 9.57837 17.1945C9.60346 17.3423 9.77912 17.3673 9.86555 17.4928C9.93247 16.7595 8.9594 17.0272 9.18245 16.5421C9.26889 16.8376 9.54491 16.7735 9.7373 16.8934C9.81258 17.016 9.99381 17.1164 10.0858 16.9463C10.1778 17.0132 10.2587 17.0746 10.3395 17.1359C10.1499 16.266 9.69826 16.8041 9.41387 16.3469C9.61183 16.3552 9.82373 16.648 10.0356 16.45C10.1499 16.5671 10.2392 16.7066 10.3256 16.846C10.3618 16.5671 10.2559 16.3552 10.0384 16.2019C9.79027 16.0513 9.45569 16.319 9.24379 16.0179C8.95382 15.661 8.96219 15.1619 9.11275 14.7493C9.24937 14.4314 9.63414 14.3143 9.81258 14.0132C9.76239 14.2781 9.78748 14.7409 10.0886 14.8245C10.0161 14.331 10.3646 13.8877 10.4371 13.411C10.5291 13.2911 10.5319 13.1963 10.4511 13.068C10.3033 12.8227 10.2615 12.5299 10.097 12.2873C9.84046 11.9277 9.5254 11.9193 10.0468 11.5401C9.72893 12.0308 9.98823 11.8524 10.2615 12.3152C10.3117 12.1591 10.5459 11.9555 10.2531 11.9555C9.79306 11.7297 10.8526 11.1442 11.0896 11.1275C11.3265 11.1079 11.6555 11.1358 11.834 10.9016C11.7225 10.6897 11.6137 10.659 11.8033 10.4388C11.6751 10.3635 11.5607 10.2743 11.5384 10.1042C11.4158 10.146 11.307 10.1851 11.1816 10.2297C11.2987 10.0986 11.6388 9.83375 11.6751 10.1265C11.6834 10.291 11.8451 10.3217 11.9734 10.3607C11.8814 10.4945 11.7252 10.6312 11.8674 10.7901C11.965 10.8932 12.0264 11.0884 12.1769 11.1135C12.2188 10.9602 12.2578 10.8152 12.2968 10.6646C12.6314 11.0159 11.9595 11.2111 12.8795 11.5262C12.8461 11.3366 12.8154 11.1525 12.8405 10.9574C13.2838 11.3282 12.6509 11.5596 13.6714 11.6823C13.5571 11.5485 13.532 11.3979 13.4902 11.2473C13.6602 11.2752 13.7968 11.4369 13.9084 11.5596C14.0143 11.7185 14.0896 11.8078 14.3322 11.6516C14.3433 11.6795 14.3461 11.7185 14.3656 11.7325C14.4744 11.8133 14.4298 11.9137 14.427 12.0225H14.4576C14.5998 11.8803 14.6082 11.7158 14.5664 11.5345C14.4688 11.1972 14.0561 11.4648 13.9112 11.1219C14.1063 11.2557 14.2987 11.331 14.5134 11.2223C14.6333 11.3338 14.6835 11.4174 14.742 11.5763C14.8396 11.2111 14.7281 10.8403 14.3433 10.949C14.2234 10.9908 14.1733 10.9825 14.0534 10.8765C14.2318 10.9379 14.3489 10.8459 14.4632 10.765C14.4883 10.7957 14.5023 10.8319 14.519 10.8347C14.6277 10.8403 14.6974 10.9072 14.7643 10.9853C14.8006 10.673 14.4911 10.4221 14.1788 10.5001C14.1008 10.8821 13.7801 10.6646 13.5264 10.6144C13.1305 10.383 12.9242 9.9397 12.5756 9.65252C12.6119 9.22314 12.255 8.88299 11.8256 8.90808C12.2132 8.74079 12.6704 9.07258 12.7011 9.47408C12.715 9.63858 12.8154 9.74174 12.9214 9.86721C14.2262 7.24077 18.4419 6.55488 20.862 8.2222C21.0684 8.41179 21.2914 8.56514 21.5061 8.7631C21.5897 8.51217 21.5396 8.21383 21.9132 8.36718L21.9829 8.31978C21.9076 8.10788 22.0637 7.8681 22.2868 7.85137V8.01587C22.1892 8.0326 22.1139 8.1274 22.1306 8.22778C22.2059 8.21105 22.2728 8.31142 22.2338 8.37555C22.3035 8.41458 22.4011 8.39785 22.4569 8.34209C22.5182 8.34488 22.5823 8.35045 22.6437 8.35603C22.5572 8.55957 22.2617 8.62648 22.0972 8.47871C22.1306 8.52332 21.9857 8.96942 21.9801 9.0224C21.9634 9.08653 21.902 9.13114 21.8379 9.12835C21.8658 9.17296 21.8853 9.2092 21.9104 9.24824C22.0163 9.18969 22.1641 9.19248 22.1502 9.04192C22.1697 8.95548 22.1167 8.56514 22.2366 8.5986C22.2868 8.74637 22.192 8.91924 22.3035 9.06701C22.652 8.98058 22.4987 8.66551 22.9225 8.58187C23.0898 8.56793 23.4439 8.48429 23.5359 8.65436C23.165 8.55399 22.6883 8.65436 22.6074 9.07816C22.2227 9.17017 21.8992 9.44341 21.4894 9.44341C21.1632 9.46014 21.0767 9.85327 21.0628 10.1209C21.0098 10.4276 20.9931 10.7483 20.8537 11.0327C20.7868 11.1414 20.8425 11.2669 20.8788 11.3672C21.0042 11.4342 21.0934 11.8663 21.1102 12.0197C21.1102 12.3013 21.5925 12.3961 21.7905 12.5717C21.8463 12.2176 21.1743 12.318 21.2691 11.8245C21.389 12.1507 21.6483 12.2176 21.9327 12.3793C21.8435 12.0475 21.8156 11.4983 21.3555 11.568C21.1771 11.3198 21.4392 11.3059 21.3555 11.0104C21.4894 11.0522 21.5507 11.0968 21.587 11.1804C21.5451 11.1665 21.5089 11.1553 21.4531 11.1386C21.4698 11.3477 21.6511 11.3979 21.7905 11.5401C21.7682 11.1972 21.7375 10.9797 21.4169 10.8152C21.2356 10.6507 21.4448 10.2687 21.4336 10.0401C21.428 9.97316 21.8602 9.75847 21.9271 9.7752C22.2477 9.81702 22.5823 9.76684 22.8946 9.84769C23.2041 9.94528 22.9392 9.27333 23.4383 9.62743C23.0758 9.52148 23.2961 9.91461 23.034 9.93691C22.85 9.93691 22.6966 9.92018 22.507 9.91461C23.165 11.3784 24.6205 10.949 25.022 12.2539C25.3565 11.9583 25.1279 11.9639 25.0359 11.6516C25.7943 12.1563 24.3305 12.7418 24.8798 13.6256C24.8463 13.5253 25.1893 13.1126 25.2283 13.0262C25.2896 12.9342 25.3984 12.9258 25.4653 12.9955L25.574 12.7669C25.3705 12.6554 25.7385 12.1758 25.7664 12.042C25.8054 11.9611 25.8919 11.9221 25.9588 11.9555L26.0619 11.6711C25.8696 11.6182 26.0145 11.1525 25.9978 11.0215C25.7274 10.7761 25.5043 10.4695 25.2952 10.1851L25.4262 10.1628C25.4123 10.2269 25.4346 10.2966 25.4904 10.3328C25.5824 10.3691 25.9393 10.712 26.0508 10.6312L26.1066 10.7817C26.0173 10.8068 26.0006 10.9323 26.0006 11.0187C26.048 11.0578 26.101 11.0968 26.1456 11.1386C26.1512 11.1079 26.1456 10.9685 26.1735 10.949C26.2153 11.0048 26.2934 11.0048 26.3408 10.9602C26.3854 10.9825 26.3296 11.2864 26.3352 11.3226C26.3882 11.3784 26.4383 11.4369 26.483 11.4983C26.4634 11.3589 26.6335 10.8291 26.3965 10.804L26.4133 10.8152ZM22.5963 5.88294C22.6465 5.87736 22.6855 5.87457 22.7413 5.86621C22.6465 5.7965 22.7413 5.70171 22.8193 5.76862C23.0089 5.9164 22.6297 6.15617 22.5963 5.88015V5.88294ZM15.0069 7.26586L14.6082 7.01214L14.8201 6.58555L15.3945 6.79188L15.0069 7.26586ZM16.309 6.93686C15.6844 7.06233 15.5506 6.37644 16.1779 6.26213C16.8025 6.13666 16.9363 6.82254 16.309 6.93686ZM17.7226 6.8811L17.1064 6.44614L17.7226 6.01119L18.3388 6.44614L17.7226 6.8811ZM19.6826 6.6915C19.6102 7.13203 18.6231 6.94244 18.7179 6.5047C18.7904 6.06417 19.7774 6.25376 19.6826 6.6915ZM20.0535 6.79188L20.6278 6.58555L20.8397 7.01214L20.441 7.26586L20.0535 6.79188ZM24.7961 4.77046C24.9104 4.89593 24.9578 5.03255 24.9578 5.1859C24.8491 5.14686 24.8017 5.02976 24.7961 4.77046ZM24.2775 5.58739C24.1242 5.69055 23.9876 5.84669 23.8342 5.63758C23.798 5.64594 23.7673 5.65152 23.731 5.6571C23.9625 5.30021 23.9429 5.36155 24.2775 5.58739ZM23.0061 6.87831C23.1065 6.91455 23.2041 6.96753 23.3072 6.86715C23.2097 6.86715 23.179 6.79745 23.1511 6.73054C23.1037 6.39317 23.653 6.51306 23.8565 6.53815C24.3723 6.85043 25.2478 6.65247 24.9439 5.90803C25.1809 6.0558 25.1 6.46287 24.9188 6.6218C24.442 6.87831 23.9903 6.68593 23.5164 7.19058C23.4439 6.95916 23.1706 6.9731 23.073 7.22683C22.981 7.2324 22.9587 7.2324 22.8723 7.23798C22.8556 7.10415 22.9643 7.00656 23.0089 6.8811L23.0061 6.87831ZM24.8017 9.08653C24.7794 9.11162 24.7376 9.16738 24.7376 9.16738C24.3417 8.7157 23.0061 8.1971 22.429 8.28075C22.429 8.28075 22.4373 8.21383 22.4401 8.17759H22.4373L22.6576 8.04097L22.4708 7.88483C22.4708 7.86253 22.3509 7.10136 22.3509 7.10136L22.6827 7.09021C22.6827 7.09021 22.5656 7.22962 22.56 7.33835C22.5795 7.35229 22.5935 7.36902 22.6046 7.39412C22.6715 7.36623 22.7413 7.22962 22.7413 7.22962L22.7719 7.67851C22.7719 7.67851 22.6799 7.55025 22.613 7.52516C22.6074 7.54189 22.6018 7.55583 22.5879 7.56977C22.6827 7.8681 23.1204 7.88483 23.1204 7.63111C23.1065 7.49728 22.9587 7.51958 22.9671 7.66178C22.7273 7.47218 23.0507 7.17106 23.1846 7.47497C23.1678 7.29932 23.1846 7.20173 23.3184 7.1153C23.4076 7.22961 23.3965 7.33556 23.2989 7.50564C23.5916 7.2324 23.7032 7.69524 23.4299 7.76215C23.5638 7.51958 23.179 7.59486 23.3184 7.84859C23.4494 8.04655 23.7617 8.01866 23.8732 7.80119C23.8649 7.78725 23.8593 7.77331 23.8565 7.75937C23.7478 7.73706 23.5833 7.83186 23.5833 7.83186L23.7366 7.41642C23.7366 7.41642 23.8007 7.59486 23.8928 7.64784C23.9095 7.63111 23.929 7.62275 23.9541 7.61717C23.9708 7.50843 23.8621 7.33556 23.8621 7.33556L24.3695 7.53074C24.3695 7.53074 24.1688 7.58092 24.1047 7.67293C24.1186 7.69245 24.1242 7.71475 24.127 7.73706C24.2329 7.75936 24.4058 7.67014 24.4058 7.67014L24.2245 8.07443C24.2245 8.07443 24.1716 7.89598 24.0768 7.84022C24.0656 7.84858 24.0517 7.85416 24.035 7.85974C23.9625 8.09394 24.1744 8.31978 24.4058 8.26402C24.6874 8.17759 24.4643 7.85974 24.3863 8.1274C24.2357 7.8932 24.6428 7.6339 24.6623 8.02703C24.7125 7.83743 24.7794 7.751 24.9244 7.7287C24.9634 7.88204 24.9021 7.96569 24.7655 8.08C25.0805 7.94617 25.0945 8.38391 24.7905 8.36161C24.8965 8.26402 24.8017 8.15249 24.6985 8.23893C24.5173 8.42852 24.8575 8.69897 25.1223 8.56514C25.1223 8.54841 25.1251 8.53168 25.1335 8.51774C25.0666 8.47034 24.9104 8.46755 24.9104 8.46755L25.2367 8.22499C25.2367 8.22499 25.1976 8.36997 25.2283 8.44804C25.2534 8.44525 25.2757 8.44804 25.3008 8.4564C25.3705 8.3867 25.3761 8.19711 25.3761 8.19711L25.6186 8.50101C25.6186 8.50101 25.008 8.78262 24.8993 8.86347L24.7292 8.84674L24.8128 9.08653H24.8073H24.8017ZM26.1149 10.3273C26.0368 10.3189 25.9755 10.3886 26.0006 10.4694C25.9922 10.4694 25.9867 10.4667 25.9783 10.4611L25.6214 10.2157C25.5991 10.199 25.5907 10.1683 25.6047 10.1404C25.6716 10.1404 25.7441 10.1042 25.7357 10.0206C25.7636 10.0568 26.1484 10.2603 26.1177 10.3217L26.1149 10.3273Z" fill="#1D1D1B"/>
<path id="Vector_28" d="M21.8014 8.59015C21.7735 8.55669 21.7679 8.51208 21.7902 8.47584C21.7456 8.46747 21.6759 8.86897 21.6592 8.89127C21.6871 8.91915 21.7149 8.94704 21.7372 8.97492C21.7735 8.98607 21.8376 9.00837 21.8516 8.95261L21.9436 8.59851C21.9018 8.63755 21.832 8.64034 21.7986 8.59015H21.8014Z" fill="#1D1D1B"/>
</g>
<path id="Vector_29" d="M16.4236 18.6498C15.4143 18.2511 14.6782 19.2298 15.5035 19.3943C14.5974 19.4333 14.773 18.1591 14.3994 18.2344C14.7256 18.5885 14.7256 19.2437 15.0295 19.425C15.6374 19.6843 16.2703 19.7261 16.9227 19.6954C16.5937 19.4054 16.5156 19.0374 16.4264 18.6471L16.4236 18.6498Z" fill="#1D1D1B"/>
<path id="Vector_30" d="M19.5101 19.3805C20.3326 19.216 19.6049 18.2374 18.59 18.6361C18.5008 19.0264 18.42 19.3917 18.0938 19.6844C18.7462 19.7151 19.3791 19.6733 19.9869 19.414C20.288 19.2327 20.288 18.5747 20.617 18.2234C20.2434 18.1481 20.4191 19.4223 19.5129 19.3833L19.5101 19.3805Z" fill="#1D1D1B"/>
<path id="Vector_31" d="M26.1313 11.4788C26.1313 11.4983 26.1369 11.5178 26.1481 11.529C26.1955 11.49 26.2652 11.5067 26.2986 11.5541C26.3516 11.5401 26.3349 11.3756 26.346 11.3366C26.2875 11.2725 26.2234 11.2111 26.1564 11.1526L26.1313 11.4816V11.4788Z" fill="#1D1D1B"/>
<path id="Vector_32" d="M25.8773 12.689C25.8829 12.6416 26.1366 12.2205 26.0697 12.1843C26.0251 12.1927 25.9693 12.1676 25.9526 12.1258C25.8913 12.1007 25.7295 12.5579 25.7017 12.5886C25.7825 12.5384 25.8857 12.622 25.8578 12.7141C25.8662 12.7085 25.8745 12.7001 25.8773 12.689Z" fill="#1D1D1B"/>
<path id="Vector_33" d="M28.7665 10.7483C28.5546 10.8125 28.4682 10.9881 28.3873 11.1889C27.8548 10.3608 26.8455 9.78921 26.6921 8.77433C26.812 7.96297 27.8855 8.14978 27.668 8.99459C28.2256 8.69626 27.9552 8.13863 27.431 8.03825C28.0026 8.08286 28.3121 8.56521 28.7024 7.76501C28.365 7.88769 27.852 7.80126 27.6736 7.77338C28.3846 7.67858 28.7693 7.68416 28.747 6.8031C28.5044 7.33006 27.8353 7.34121 27.3502 7.51129C27.3808 7.27709 27.3083 7.1321 27.1187 7.05682C27.3111 8.34495 24.8687 7.92394 27.5537 10.7065C27.2247 10.5253 26.8427 10.5866 26.5221 10.3831C26.7702 11.0522 27.1912 10.9379 27.7405 11.1693C27.1522 11.1666 26.9682 11.7409 27.4059 12.0169C27.2916 11.5736 27.9022 11.2669 28.2061 11.6155C28.9032 12.5105 27.629 13.754 26.497 11.5095C26.5053 11.6322 26.4189 11.7437 26.299 11.7075L26.1708 12.0616C26.4301 12.1564 26.0314 12.6582 26.0035 12.8032C25.9589 12.898 25.8585 12.9287 25.7832 12.8757L25.6577 13.135C25.8139 13.28 25.3929 13.6871 25.3455 13.8125C25.2953 13.885 25.2088 13.9101 25.1475 13.8711L25.1029 13.9659L25.1196 13.9854C25.4068 14.3228 25.5379 14.5848 25.4598 14.9445C25.6912 14.7466 25.7944 14.1945 25.6103 13.8934C25.8195 14.1136 26.1262 14.2698 26.246 14.5486C26.3659 15.056 26.2739 15.5635 25.9282 15.965C25.7804 16.1127 25.8195 16.1908 25.8027 16.3693C25.7051 16.6564 25.3622 16.6787 25.2339 16.9241C25.1419 17.136 24.9942 17.3117 24.9272 17.5347C25.3176 17.4734 25.2507 16.9297 25.6187 16.8209C25.4681 17.0496 25.3232 17.2559 25.2228 17.5208C25.5295 17.4399 26.1122 17.3591 26.0146 16.9241C25.9421 16.7234 26.1373 16.5923 26.1262 16.3999C26.3687 16.3135 26.313 16.2131 26.4301 16.0235C26.483 16.1378 26.4858 16.2354 26.4802 16.3609C26.4496 16.2996 26.4328 16.2605 26.4105 16.2159C26.2377 16.4501 26.3827 16.6787 26.3576 16.9269C27.208 16.1657 26.0788 16.1713 26.9598 14.4845C27.1633 14.1499 26.3827 14.1861 26.3241 13.4278C26.2683 13.0988 26.5583 12.8311 26.6197 12.5188C26.9598 13.1238 28.1448 13.1015 27.9831 13.8739C28.2228 13.6926 28.2117 13.3636 28.1169 13.1155C29.3409 12.675 28.3762 11.5485 28.7693 10.7511L28.7665 10.7483Z" fill="#1D1D1B"/>
<path id="Vector_34" d="M25.1224 13.6508C25.1503 13.6619 25.1726 13.6814 25.1837 13.7093C25.2032 13.7121 25.2255 13.701 25.2395 13.6814C25.2478 13.6536 25.5518 13.2576 25.5155 13.2298C25.482 13.2186 25.4514 13.1963 25.4402 13.1601C25.4123 13.1322 25.3705 13.1182 25.3426 13.1601C25.3315 13.2102 24.9941 13.5894 25.0806 13.6368C25.0945 13.6368 25.1084 13.6368 25.1224 13.6452V13.6508Z" fill="#1D1D1B"/>
<path id="Vector_35" d="M24.9463 13.7288C24.9463 13.7288 24.9576 13.7458 24.9605 13.7543L24.9661 13.7429L24.9463 13.7288Z" fill="#1D1D1B"/>
<path id="Vector_36" d="M13.1025 15.4436C13.2251 15.4659 13.3618 15.491 13.4789 15.4352C13.2949 15.1201 13.1108 14.8107 12.924 14.49C12.595 14.8943 12.0235 14.649 11.6666 14.398C11.3738 14.1833 12.0039 13.8487 11.8032 13.1294C12.0848 13.5811 11.5746 13.9742 12.3608 14.2279C12.1322 13.8878 12.1629 13.4528 12.0792 13.0653C12.0681 12.9984 12.0374 12.9314 12.0904 12.8645C12.1183 12.7725 12.1238 12.6471 11.9956 12.6331C11.1145 12.1285 11.293 12.3738 10.4342 12.2567C10.2251 12.6275 10.6712 12.9593 10.6015 13.3246C10.5374 13.503 10.8078 13.4947 10.805 13.6675C10.8664 13.938 10.8357 14.3172 10.5262 14.4231C10.3729 14.5151 10.4955 14.7131 10.6294 14.7577C10.3561 15.2512 10.5652 15.3293 10.9835 15.5746C10.9835 15.385 10.989 15.2177 11.0671 15.056C11.6443 15.438 10.7855 15.5021 11.9259 15.965C11.8088 15.7726 11.8143 15.5663 11.7948 15.3739C11.9036 15.399 12.0067 15.4241 12.1155 15.4492C12.2381 15.9761 12.5253 16.0235 13.03 15.9761C12.8487 15.7977 12.7986 15.5635 12.6675 15.3767C12.8181 15.4268 12.9714 15.3237 13.0997 15.4408L13.1025 15.4436Z" fill="#1D1D1B"/>
<path id="Vector_37" d="M23.3855 12.4992C23.2294 12.5243 23.1931 12.5912 23.221 12.7418C23.0481 13.1182 23.0426 13.5754 22.7442 13.8933C23.3827 13.7121 23.2433 13.4695 23.3967 12.9844C23.366 13.6452 23.3967 13.6368 23.6392 14.0857C23.1457 14.4314 22.34 14.1414 22.0695 14.8134C22.1448 14.8998 22.2424 14.8134 22.3427 14.8357C22.2786 14.9138 22.2535 15.0058 22.1504 15.0727C22.1727 15.0086 22.1866 14.9667 22.2005 14.9277C22.0165 14.8664 21.8632 15.2874 21.7266 15.424C23.0426 15.1591 21.5676 14.7716 24.1634 14.4704C24.6235 14.2558 23.7285 13.9156 24.6318 13.344C24.7127 13.0318 24.7601 12.7111 24.9301 12.4295C24.9692 12.3375 24.9078 12.2065 24.8214 12.1423C24.4255 12.4211 24.2387 11.9723 23.3855 12.4964V12.4992Z" fill="#1D1D1B"/>
<path id="Vector_38" d="M10.0824 7.0846C10.088 6.99817 10.0936 6.91174 10.0992 6.81973C10.0016 6.803 9.90958 6.78627 9.80642 6.76954C9.92631 6.68032 10.0713 6.65802 10.1884 6.70263C10.088 7.12921 10.2693 7.42755 10.7237 7.44985C10.8631 7.24353 10.9886 7.21286 11.1224 7.35784C10.523 7.2965 10.9663 7.92941 11.273 7.71473C11.3538 7.59762 11.6131 7.49446 11.5379 7.32717C11.0611 6.97865 11.0945 7.49167 11.0053 6.63292C10.9858 6.63292 10.9635 6.63013 10.944 6.62735C10.8994 6.79185 10.7405 6.91731 10.6066 6.76397C10.562 6.71378 10.5202 6.66359 10.4477 6.65244C10.7739 6.39314 11.1615 6.76675 11.1392 6.15615C11.5016 6.61062 11.5351 6.10596 11.8947 6.0976C11.878 6.45727 11.8027 6.43217 11.4933 6.40987C11.5936 6.48794 11.9812 6.8727 11.7553 6.91174C11.6605 6.66917 11.5016 6.43496 11.234 6.38756C11.0165 6.60504 11.1224 6.84482 11.1587 7.09576C11.3511 7.03163 11.5156 6.90616 11.7191 6.92289C11.786 7.12085 11.4682 7.23238 11.6494 7.43034C11.9589 7.48052 12.2962 7.48331 12.1959 7.04278C12.0955 6.98144 11.9951 6.94241 11.8892 7.05115C11.8947 6.88107 12.062 6.8504 12.1903 6.88386C12.4775 6.57995 12.3799 6.17566 12.0732 5.9331C12.154 5.8132 12.2405 5.72956 12.3883 5.70168C12.3381 5.80484 12.2349 5.84387 12.2098 5.93588C12.2795 6.01953 12.3409 6.0976 12.405 6.17567C12.5695 6.10317 12.6113 5.84387 12.497 5.58179C12.2935 5.63476 11.9366 5.80205 11.9366 5.80205C11.7609 5.73514 11.8362 5.82157 11.8613 5.90521C11.3009 6.00838 10.7516 6.15615 10.3083 6.52697C10.2274 6.58552 10.1912 6.54928 10.1661 6.43775C10.1131 6.35689 10.088 6.4963 10.0824 6.53255C10.0824 6.53255 9.74508 6.6134 9.6001 6.73887C9.70326 6.90895 9.84824 7.1794 10.0824 7.09018V7.0846Z" fill="#1D1D1B"/>
<path id="Vector_39" d="M12.2801 6.91454C12.3303 7.16826 12.2606 7.38016 12.0933 7.57812C12.3414 8.02423 12.7624 8.36159 12.9492 8.84116C13.3647 8.06605 12.9213 7.80396 12.3498 7.37738C12.7178 7.50842 13.0858 7.63389 13.2894 7.98519C13.334 7.31882 13.0384 6.98704 12.3916 6.88387C12.3916 6.87551 12.3944 6.86714 12.3972 6.85599C12.6676 6.84484 12.9353 6.84484 13.1862 7.00934C13.1193 6.80302 12.952 6.49632 12.7067 6.5242C12.7931 6.34018 12.7931 6.22029 12.7067 6.10876C12.6648 6.23702 12.584 6.31788 12.4529 6.32066C12.4808 6.55208 12.4055 6.74168 12.2801 6.91175V6.91454Z" fill="#1D1D1B"/>
<path id="Vector_40" d="M10.2222 8.43126C10.2975 8.61807 10.4146 8.83276 10.6014 8.91083C10.5038 8.54279 10.7519 8.22494 10.8662 7.89315C10.8662 8.6571 10.4341 9.07254 11.4824 9.35414C11.2036 8.90525 11.3876 8.35877 11.212 7.89594C11.0447 7.79835 10.8523 7.77605 10.738 7.63385C10.7073 7.56694 10.6488 7.54184 10.5874 7.53069C10.3895 7.48887 10.2082 7.42195 10.1106 7.25745C9.96566 7.30206 9.87923 7.29649 9.74818 7.24072C9.73703 7.40522 9.87644 7.56694 10.0577 7.5056C9.9099 7.72028 9.99354 7.91267 10.0465 8.13293C10.1525 7.91267 10.3114 7.77884 10.4926 7.66731C10.356 7.90151 10.1106 8.13851 10.2222 8.43126Z" fill="#1D1D1B"/>
<path id="Vector_41" d="M14.4322 16.241C14.5744 16.11 14.382 16.0319 14.3067 15.9315C13.0409 14.7549 12.5697 13.2242 12.6812 11.5235C12.6506 11.5095 12.6115 11.49 12.5502 11.4565C12.3383 13.2605 13.0325 15.0784 14.435 16.241H14.4322Z" fill="#1D1D1B"/>
<path id="Vector_42" d="M25.7324 6.44336C25.6125 6.67478 25.9582 6.77236 25.9638 6.98984C25.8718 6.91735 25.7937 6.85601 25.7073 6.7863C25.5957 7.21568 26.1032 7.3523 26.2593 7.69245C26.4629 7.06512 26.3513 6.68593 25.7324 6.44336Z" fill="#1D1D1B"/>
<path id="Vector_43" d="M11.8279 8.28923C11.4934 8.30875 11.5408 7.88774 11.4432 7.65354C11.3818 7.72324 11.3316 7.779 11.2759 7.84034C11.3456 8.07455 11.4153 8.30875 11.4878 8.55969C11.5435 8.52065 11.5909 8.48719 11.6411 8.45095C11.8753 8.61545 12.09 8.50392 12.1653 8.24462C12.235 8.26135 12.2991 8.29202 12.3465 8.24184C12.2378 8.016 12.1318 7.79573 12.0231 7.57268C11.9562 7.58662 11.8921 7.49182 11.814 7.5671C11.8893 7.77621 12.1653 8.19165 11.8251 8.28923H11.8279Z" fill="#1D1D1B"/>
<path id="Vector_44" d="M25.6692 5.39233C25.6692 5.39233 25.6664 5.41185 25.6636 5.42021C25.5577 5.41464 25.4545 5.40906 25.343 5.40348C25.4601 5.78267 25.9006 5.59865 26.1795 5.77152C26.0205 5.46761 25.9062 5.16928 25.5354 5.11073C25.5744 4.9295 25.527 4.75942 25.4127 4.6925C25.4127 4.85143 25.3486 4.96574 25.2036 5.02708C25.1311 5.34214 25.4601 5.32541 25.6692 5.39233Z" fill="#1D1D1B"/>
<path id="Vector_45" d="M25.5735 7.57805L25.5484 7.58362C25.4731 7.9182 25.7045 8.21096 25.8523 8.49814C26.106 8.04924 26.0949 7.53622 25.6906 7.18213C25.5679 7.42191 25.738 7.64775 25.7993 7.87359C25.7909 7.87638 25.7826 7.87917 25.7742 7.88474C25.7073 7.78158 25.6404 7.68121 25.5763 7.57805H25.5735Z" fill="#1D1D1B"/>
<path id="Vector_46" d="M25.479 5.68787C25.624 6.0336 25.8554 5.94995 26.006 6.17579C25.8777 6.13397 25.769 6.09772 25.6602 6.06148C25.6519 6.42673 26.1147 6.46576 26.3684 6.60796C26.3266 6.01408 26.0394 5.79103 25.479 5.68787Z" fill="#1D1D1B"/>
<path id="Vector_47" d="M24.1516 5.06608C24.3105 5.06608 24.5364 5.16645 24.6674 5.07723C24.6702 4.57815 24.0596 4.64228 23.7139 4.63391C23.817 4.82072 23.9481 5.00474 24.1516 5.06886V5.06608Z" fill="#1D1D1B"/>
<path id="Vector_48" d="M22.4171 12.1953C22.2861 12.1842 22.1634 12.1758 22.024 12.1647C22.0296 12.2344 22.0324 12.2874 22.0379 12.3431C22.116 12.3626 22.1829 12.3794 22.2554 12.3961C22.2777 12.8087 22.0491 12.8143 21.7424 12.6414C21.6504 13.1628 22.4924 13.1126 22.4171 12.1926V12.1953Z" fill="#1D1D1B"/>
<path id="Vector_49" d="M22.1246 10.5279C21.659 11.0967 21.6562 11.1804 22.3644 11.4229C22.3588 11.3588 22.3532 11.317 22.3477 11.2668C22.2083 11.225 22.0744 11.1748 21.949 11.0911C22.0382 10.9796 22.1218 10.8765 22.2083 10.7705C22.1832 10.698 22.1581 10.6227 22.1246 10.5251V10.5279Z" fill="#1D1D1B"/>
<path id="Vector_50" d="M19.9613 8.45653C20.0394 8.45096 20.1063 8.44538 20.176 8.4398C20.2513 8.16099 20.0923 8.13032 19.9028 7.98254C19.8247 8.21396 19.6239 8.32549 19.5068 8.52066C19.6936 8.50672 19.7996 8.44817 19.9083 8.30318C19.9278 8.35895 19.9446 8.40913 19.9613 8.45932V8.45653Z" fill="#1D1D1B"/>
<path id="Vector_51" d="M21.0292 9.71383C21.0962 9.52981 21.4447 9.08092 21.2579 8.93872C21.1714 8.98891 20.9902 8.96939 21.0069 9.10601C21.0069 9.30676 21.0069 9.5075 21.0069 9.70546C21.0153 9.70546 21.0237 9.71104 21.032 9.71383H21.0292Z" fill="#1D1D1B"/>
<path id="Vector_52" d="M24.5083 4.59494C24.5083 4.59494 24.5223 4.57543 24.5307 4.56427C24.3327 4.28267 24.2491 4.22691 23.9033 4.22412C23.9089 4.56428 24.2602 4.56427 24.5083 4.59494Z" fill="#1D1D1B"/>
<path id="Vector_53" d="M23.6218 3.75553C23.6078 3.99531 23.8086 4.13471 24.1432 4.1152C24.0567 3.87263 23.8839 3.74158 23.6218 3.75553Z" fill="#1D1D1B"/>
<path id="Vector_54" d="M22.8411 6.24842C22.5707 6.12295 22.3476 6.28187 22.0771 6.22332C22.1552 6.60251 22.6041 6.32648 22.8411 6.24842Z" fill="#1D1D1B"/>
<path id="Vector_55" d="M23.3574 3.37359C23.4271 3.61616 23.5219 3.66635 23.7701 3.6301C23.692 3.43215 23.5637 3.35129 23.3574 3.37359Z" fill="#1D1D1B"/>
<path id="Vector_56" d="M23.4911 3.2482C23.3963 3.04188 23.3461 3.01678 23.1426 3.0363C23.2262 3.23984 23.3489 3.31512 23.4911 3.2482Z" fill="#1D1D1B"/>
<path id="Vector_57" d="M22.2505 9.94261C22.3146 10.0541 22.3787 10.1629 22.4429 10.2716C22.6938 10.2716 22.4819 10.0625 22.4234 9.97328C22.3899 9.93704 22.3202 9.93704 22.2672 9.9231C22.2616 9.93146 22.2561 9.93704 22.2505 9.9454V9.94261Z" fill="#1D1D1B"/>
<path id="Vector_58" d="M21.5313 10.2324C21.6595 10.1599 21.7906 10.1014 21.9049 10.0094C21.877 9.97034 21.8575 9.94246 21.8296 9.90063C21.7209 10.0094 21.4616 10.0428 21.5313 10.2324Z" fill="#1D1D1B"/>
<path id="Vector_59" d="M23.1897 2.91357C23.2259 2.78253 23.0391 2.60966 22.9053 2.66264C22.922 2.80762 23.0754 2.93309 23.1897 2.91357Z" fill="#1D1D1B"/>
<path id="Vector_60" d="M10.6517 5.15247C10.7214 5.08835 10.6155 4.9824 10.5486 5.04931C10.4789 5.11344 10.582 5.21939 10.6517 5.15247Z" fill="#1D1D1B"/>
<path id="Vector_61" d="M10.7435 5.34205C10.8132 5.27792 10.7073 5.17197 10.6404 5.23889C10.5707 5.30302 10.6738 5.40897 10.7435 5.34205Z" fill="#1D1D1B"/>
<path id="Vector_62" d="M10.267 4.48055L10.1025 4.49171L10.189 4.70918L10.3061 4.57256C10.3061 4.57256 10.32 4.58093 10.3284 4.58093C10.3284 4.58093 10.3451 4.86811 10.3451 4.8709C10.3758 5.12462 10.7605 4.96848 10.6072 4.76494L10.4204 4.54468C10.4232 4.5391 10.4288 4.53074 10.4288 4.52238L10.6072 4.54189L10.5208 4.32442L10.3925 4.43037C10.3925 4.43037 10.3786 4.422 10.3702 4.422L10.3563 4.21289C10.3033 4.2352 10.1973 4.27702 10.1444 4.29653L10.2782 4.45825C10.2782 4.45825 10.2726 4.47219 10.2698 4.47776L10.267 4.48055Z" fill="#1D1D1B"/>
<path id="Vector_63" d="M9.79584 5.6125C9.90179 5.61529 9.90458 5.448 9.79584 5.448C9.68989 5.448 9.68711 5.6125 9.79584 5.6125Z" fill="#1D1D1B"/>
<path id="Vector_64" d="M9.77631 5.82722C9.88226 5.83001 9.88505 5.66272 9.77631 5.66272C9.67036 5.66272 9.66757 5.82722 9.77631 5.82722Z" fill="#1D1D1B"/>
<path id="Vector_65" d="M10.1186 5.09394C10.2245 5.09673 10.2273 4.92944 10.1186 4.92944C10.0126 4.92944 10.0099 5.09394 10.1186 5.09394Z" fill="#1D1D1B"/>
<path id="Vector_66" d="M9.86225 5.41731C9.9682 5.4201 9.97099 5.25281 9.86225 5.25281C9.7563 5.25281 9.75351 5.41731 9.86225 5.41731Z" fill="#1D1D1B"/>
<path id="Vector_67" d="M10.858 5.621C10.8525 5.54014 10.911 5.37564 10.911 5.37564C10.8274 5.4091 10.6573 5.47602 10.5737 5.50948C10.5737 5.50948 10.727 5.58476 10.78 5.64888C10.7103 5.67398 10.6406 5.68513 10.543 5.64052L10.674 5.89982C10.7019 5.7855 10.7605 5.7158 10.8051 5.70743C10.9473 5.92491 10.5932 6.16469 10.4426 5.97789C10.398 5.89982 10.451 5.81617 10.5402 5.8803C10.5263 5.71859 10.3868 5.71859 10.345 5.83848C10.3478 5.67398 10.306 5.5736 10.1331 5.52341C10.0885 5.68792 10.1443 5.78829 10.3088 5.85799C10.214 5.84684 10.1136 5.93885 10.2419 6.05316C10.2419 5.95 10.3311 5.93885 10.3785 6.00855C10.4538 6.20094 10.2279 6.27622 10.0411 6.08105C10.0829 6.0671 10.1275 6.07268 10.1861 6.08662L10.0077 5.86357C10.016 5.94164 10.0104 6.00019 9.99372 6.03365C9.95468 5.98904 9.94353 5.95 9.9268 5.86357L9.79297 5.98346C9.92122 6.06432 10.0662 6.19257 10.2446 6.44629C10.4789 6.21488 11.4296 5.81896 11.7949 5.83011C11.7503 5.52341 11.767 5.33103 11.806 5.18326L11.6276 5.18884C11.675 5.26133 11.6917 5.29757 11.6945 5.35613C11.6582 5.34219 11.6164 5.30315 11.5662 5.24181L11.5913 5.5262C11.6248 5.47602 11.6527 5.43977 11.6945 5.42304C11.6945 5.69349 11.477 5.79387 11.3989 5.60427C11.385 5.52063 11.4547 5.47044 11.5272 5.54293C11.5411 5.37007 11.4017 5.37286 11.3432 5.44814C11.4157 5.28363 11.385 5.17211 11.24 5.08289C11.148 5.23623 11.187 5.3394 11.3014 5.4565C11.187 5.39795 11.0867 5.49553 11.187 5.621C11.2094 5.51226 11.3041 5.53736 11.3265 5.62379C11.3432 5.86357 10.9222 5.93049 10.8776 5.67676C10.9166 5.65167 11.0058 5.66003 11.1062 5.72416L11.0225 5.44535C10.9807 5.54572 10.925 5.58475 10.8553 5.61542L10.858 5.621Z" fill="#1D1D1B"/>
<path id="Vector_68" d="M15.3048 14.4455C15.433 14.518 15.5724 14.6016 15.7035 14.6741C15.3856 15.0589 15.9544 15.2262 15.9237 14.8498C16.1356 14.9418 16.9721 15.1983 16.6375 14.6992C15.5418 14.7355 14.9813 13.584 15.5892 12.7057C15.9572 12.873 17.2537 12.2429 17.1477 12.8841C17.2147 12.9566 17.2342 12.9622 17.3875 12.9622C17.7639 12.1007 16.4702 12.3572 16.0074 12.4575C15.5947 12.5802 15.2128 11.9752 14.8503 12.307C14.7053 12.4352 14.8001 12.7224 14.9981 12.7308C15.1737 12.7364 15.2239 12.4966 15.0678 12.4213C15.4079 12.307 15.2434 12.8535 15.1208 12.9929C14.7304 12.7921 14.6663 13.4195 15.0511 13.255C15.0678 13.3665 15.0734 13.478 15.0455 13.5867C14.6245 13.4947 14.736 14.0998 15.0511 13.8572C15.1431 13.9436 15.1849 14.0775 15.1932 14.2085C14.7694 14.2698 15.1096 14.8107 15.3048 14.4483V14.4455Z" fill="#1D1D1B"/>
<path id="Vector_69" d="M16.5318 15.1035C16.5151 15.0979 16.4956 15.0923 16.4733 15.0839C16.4426 15.162 16.398 15.307 16.4677 15.3572L16.8218 15.5105L17.2791 15.1732L17.4017 13.3413L17.2679 13.3525C17.2317 13.3553 16.9835 15.4687 16.8525 15.3432C16.8776 15.2038 17.1815 13.3525 17.1815 13.3525C17.1815 13.3525 17.0922 13.3386 17.0476 13.333C17.0393 13.3748 17.0309 13.4306 17.0309 13.4306L16.5263 12.7698L16.4593 12.8004L16.9974 13.5086L16.964 13.6341C16.9138 13.6006 16.3952 12.8785 16.3422 12.8116L16.2363 12.8032L16.9389 13.7177L16.9027 13.8404L16.1164 12.806H16.016L16.8664 13.9269L16.8218 14.0886L15.8878 12.8172H15.7651L16.7995 14.1862L16.7605 14.3116L15.6201 12.82L15.6006 12.9343C15.6006 12.9343 16.6629 14.3311 16.727 14.4232C16.6712 14.596 16.7131 14.61 16.7883 14.7522C16.8302 14.9111 16.7186 15.1592 16.5318 15.1007V15.1035Z" fill="#1D1D1B"/>
<path id="Vector_70" d="M16.6373 14.5208L15.5443 13.0737C15.5443 13.0737 15.522 13.1434 15.5137 13.1713C15.5945 13.2773 16.5592 14.557 16.5592 14.557L16.6345 14.5208H16.6373Z" fill="#1D1D1B"/>
<path id="Vector_71" d="M15.5421 13.5615C15.793 13.8822 16.0412 14.2084 16.2865 14.5318C16.3228 14.5374 16.3925 14.5513 16.3925 14.5513L15.5003 13.3691C15.5003 13.3691 15.4835 13.489 15.5421 13.5643V13.5615Z" fill="#1D1D1B"/>
<path id="Vector_72" d="M17.4458 13.0234C17.3259 13.0122 17.1976 12.9899 17.0777 12.9788C16.8491 13.1795 17.1056 13.2938 17.2785 13.2771C17.4263 13.3161 17.6214 13.121 17.4458 13.0234Z" fill="#1D1D1B"/>
<path id="Vector_73" d="M17.4097 18.1897C17.3735 18.3542 17.63 18.4044 17.6635 18.2399C17.6997 18.0754 17.4432 18.0252 17.4097 18.1897Z" fill="#1D1D1B"/>
<path id="Vector_74" d="M17.6412 17.2086C17.6858 17.005 17.3652 16.9409 17.329 17.1445C17.2843 17.348 17.605 17.4121 17.6412 17.2086Z" fill="#1D1D1B"/>
<path id="Vector_75" d="M16.5509 16.6676C16.5955 16.464 16.2749 16.3999 16.2386 16.6034C16.194 16.807 16.5147 16.8711 16.5509 16.6676Z" fill="#1D1D1B"/>
<path id="Vector_76" d="M18.3043 18.6499C18.176 19.3804 17.8247 19.7122 17.5152 19.7122C17.2057 19.7122 16.8572 19.3831 16.7262 18.6499C16.7652 18.6861 16.8042 18.7335 16.8489 18.7921L16.9158 18.8813L17.0106 18.8227C17.0524 18.7976 17.0914 18.7781 17.1277 18.7614C17.0859 18.845 17.0719 18.9454 17.0914 19.0486C17.1332 19.2688 17.3061 19.4222 17.5152 19.4222C17.7216 19.4222 17.8972 19.266 17.9362 19.0486C17.9558 18.9454 17.9418 18.845 17.9 18.7614C17.9362 18.7753 17.9753 18.7948 18.0171 18.8227L18.1119 18.8813L18.1788 18.7921C18.2234 18.7335 18.2597 18.6861 18.3015 18.6499M18.4576 18.4519C18.2764 18.4714 18.1816 18.5941 18.0868 18.7196C18.0004 18.6666 17.8888 18.6136 17.7857 18.6136C17.7299 18.6136 17.6742 18.6276 17.6295 18.6666C17.9613 18.7976 17.8442 19.2995 17.5208 19.3023C17.1974 19.3023 17.0775 18.7976 17.4121 18.6666C17.3647 18.6276 17.3117 18.6136 17.2559 18.6136C17.15 18.6136 17.0385 18.6666 16.9548 18.7196C16.86 18.5941 16.7652 18.4714 16.584 18.4519C16.6844 19.3748 17.1054 19.8348 17.5236 19.8348C17.9418 19.8348 18.3656 19.3748 18.4632 18.4519H18.4576Z" fill="#1D1D1B"/>
<path id="Vector_77" d="M15.4499 16.0345C15.5893 15.8672 15.1013 15.647 15.0289 15.555C14.9703 15.5187 14.8978 15.5299 14.8588 15.5801C14.7194 15.739 15.1989 15.962 15.2658 16.0513C15.3244 16.0959 15.408 16.0903 15.4499 16.0373V16.0345Z" fill="#1D1D1B"/>
<path id="Vector_78" d="M15.3883 16.3913C15.9292 16.3913 15.8567 15.5382 15.327 15.6274C15.5723 15.7612 15.787 16.1125 15.4051 16.2157C15.2601 16.2464 15.1123 16.0902 15.0063 16.0122C15.0091 16.2213 15.182 16.3886 15.3911 16.3886L15.3883 16.3913Z" fill="#1D1D1B"/>
<path id="Vector_79" d="M14.621 16.5337C14.7409 16.7596 15.4351 17.373 15.622 17.083C15.2818 16.9101 14.7074 16.4891 14.9277 15.951C14.4286 15.6443 14.8691 15.1564 15.2567 15.5718C15.6693 15.3153 16.1294 15.4993 16.5365 15.7809C16.6842 15.4631 15.9733 15.2456 15.806 15.1508C15.5969 15.0811 14.9361 15.2289 14.7158 15.24C14.5652 15.2595 14.4565 15.3934 14.4704 15.5439C14.5039 15.7057 14.4983 16.4027 14.6182 16.5309L14.621 16.5337Z" fill="#1D1D1B"/>
<path id="Vector_80" d="M20.7365 4.44976L21.0432 4.54734C20.5581 3.52409 19.6687 2.75735 18.6008 2.48132C18.5757 2.55382 18.5506 2.6291 18.5283 2.70995C19.4679 2.94695 20.2598 3.58543 20.7365 4.44697V4.44976Z" fill="#1D1D1B"/>
<path id="Vector_81" d="M14.4014 4.54737L14.7081 4.44978C15.1848 3.58824 15.9767 2.94696 16.9163 2.71276C16.894 2.6319 16.8717 2.55662 16.8438 2.48413C15.7731 2.76016 14.8865 3.5269 14.4014 4.55015V4.54737Z" fill="#1D1D1B"/>
<path id="Vector_82" d="M20.0334 2.8939C20.2536 2.89669 20.2536 2.55375 20.0334 2.55654C19.8131 2.55375 19.8131 2.89669 20.0334 2.8939Z" fill="#1D1D1B"/>
<path id="Vector_83" d="M19.2585 2.45066C19.4787 2.45345 19.4787 2.11051 19.2585 2.1133C19.0382 2.11051 19.0382 2.45345 19.2585 2.45066Z" fill="#1D1D1B"/>
<path id="Vector_84" d="M18.838 2.30027C19.0583 2.30306 19.0583 1.96012 18.838 1.96291C18.6178 1.96012 18.6178 2.30306 18.838 2.30027Z" fill="#1D1D1B"/>
<path id="Vector_85" d="M19.6569 2.65135C19.8772 2.65414 19.8772 2.31119 19.6569 2.31398C19.4366 2.31119 19.4366 2.65414 19.6569 2.65135Z" fill="#1D1D1B"/>
<path id="Vector_86" d="M20.3815 3.17564C20.6018 3.17843 20.6018 2.83549 20.3815 2.83827C20.1612 2.83549 20.1612 3.17843 20.3815 3.17564Z" fill="#1D1D1B"/>
<path id="Vector_87" d="M21.2578 4.44413C21.255 4.66439 21.598 4.66439 21.5952 4.44413C21.598 4.22386 21.255 4.22386 21.2578 4.44413Z" fill="#1D1D1B"/>
<path id="Vector_88" d="M21.0542 4.04838C21.0514 4.26864 21.3944 4.26864 21.3916 4.04838C21.3944 3.82811 21.0514 3.82811 21.0542 4.04838Z" fill="#1D1D1B"/>
<path id="Vector_89" d="M20.6969 3.4907C20.9172 3.49349 20.9172 3.15055 20.6969 3.15334C20.4767 3.15055 20.4767 3.49349 20.6969 3.4907Z" fill="#1D1D1B"/>
<path id="Vector_90" d="M20.8091 3.67191C20.8063 3.89218 21.1493 3.89218 21.1465 3.67191C21.1493 3.45165 20.8063 3.45165 20.8091 3.67191Z" fill="#1D1D1B"/>
<path id="Vector_91" d="M15.4103 2.8939C15.6306 2.89669 15.6306 2.55375 15.4103 2.55654C15.1901 2.55375 15.1901 2.89669 15.4103 2.8939Z" fill="#1D1D1B"/>
<path id="Vector_92" d="M15.0646 3.17564C15.2849 3.17843 15.2849 2.83549 15.0646 2.83827C14.8443 2.83549 14.8443 3.17843 15.0646 3.17564Z" fill="#1D1D1B"/>
<path id="Vector_93" d="M14.0192 4.61436C14.2395 4.61715 14.2395 4.27421 14.0192 4.27699C13.7989 4.27421 13.7989 4.61715 14.0192 4.61436Z" fill="#1D1D1B"/>
<path id="Vector_94" d="M15.7868 2.65135C16.007 2.65414 16.007 2.31119 15.7868 2.31398C15.5665 2.31119 15.5665 2.65414 15.7868 2.65135Z" fill="#1D1D1B"/>
<path id="Vector_95" d="M14.4679 3.83921C14.6882 3.842 14.6882 3.49906 14.4679 3.50185C14.2477 3.49906 14.2477 3.842 14.4679 3.83921Z" fill="#1D1D1B"/>
<path id="Vector_96" d="M14.2228 4.21568C14.4431 4.21847 14.4431 3.87552 14.2228 3.87831C14.0026 3.87552 14.0026 4.21847 14.2228 4.21568Z" fill="#1D1D1B"/>
<path id="Vector_97" d="M16.6071 2.30027C16.8274 2.30306 16.8274 1.96012 16.6071 1.96291C16.3868 1.96012 16.3868 2.30306 16.6071 2.30027Z" fill="#1D1D1B"/>
<path id="Vector_98" d="M14.7502 3.4907C14.9704 3.49349 14.9704 3.15055 14.7502 3.15334C14.5299 3.15055 14.5299 3.49349 14.7502 3.4907Z" fill="#1D1D1B"/>
<path id="Vector_99" d="M16.1857 2.45066C16.406 2.45345 16.406 2.11051 16.1857 2.1133C15.9654 2.11051 15.9654 2.45345 16.1857 2.45066Z" fill="#1D1D1B"/>
<path id="Vector_100" d="M18.0117 4.02315H18.2376C18.2376 3.30939 18.3407 2.6932 18.5275 2.28334C18.5889 2.1523 18.3825 2.05472 18.3212 2.18855C18.0535 2.77685 18.0117 3.5882 18.0117 4.02036V4.02315Z" fill="#1D1D1B"/>
<path id="Vector_101" d="M17.2059 4.0232H17.4317C17.4317 3.59103 17.3899 2.77968 17.1223 2.19138C17.0637 2.05755 16.8546 2.15235 16.9159 2.28618C17.1027 2.69325 17.2059 3.31222 17.2059 4.02599V4.0232Z" fill="#1D1D1B"/>
<path id="Vector_102" d="M17.7227 4.02046C17.9597 4.02325 17.9597 3.64964 17.7227 3.65521C17.4857 3.65243 17.4857 4.02604 17.7227 4.02046Z" fill="#1D1D1B"/>
<path id="Vector_103" d="M17.7227 3.56038C17.9597 3.56317 17.9597 3.18955 17.7227 3.19513C17.4857 3.19234 17.4857 3.56595 17.7227 3.56038Z" fill="#1D1D1B"/>
<path id="Vector_104" d="M17.7227 3.10029C17.9597 3.10308 17.9597 2.72947 17.7227 2.73505C17.4857 2.73226 17.4857 3.10587 17.7227 3.10029Z" fill="#1D1D1B"/>
<path id="Vector_105" d="M17.594 2.65441C17.6721 2.61259 17.7752 2.61259 17.8533 2.65441C18.1154 2.25013 17.3319 2.25013 17.594 2.65441Z" fill="#1D1D1B"/>
<path id="Vector_106" d="M17.8675 2.26681C18.0711 1.88762 17.3712 1.88762 17.5776 2.26681C17.6612 2.21384 17.7839 2.21384 17.8675 2.26681Z" fill="#1D1D1B"/>
<path id="Vector_107" d="M17.6105 0.72492C17.5799 0.959125 17.4572 1.14036 17.3066 1.16824V1.22679H17.605C17.591 1.23794 17.5799 1.24909 17.5687 1.26303C17.039 1.38014 16.9832 2.1887 17.4907 2.38108C17.2927 2.19149 17.446 1.82345 17.7249 1.83182C18.0037 1.82345 18.157 2.1887 17.9591 2.38108C18.4665 2.19149 18.4107 1.38292 17.881 1.26303C17.8698 1.24909 17.8587 1.23794 17.8448 1.22679H18.1431V1.16824C17.9897 1.14036 17.8671 0.959125 17.8392 0.72492C18.0734 0.755589 18.2546 0.878269 18.2825 1.02883H18.341V0.197959H18.2825C18.2546 0.351307 18.0734 0.473985 17.8392 0.501867C17.8698 0.267662 17.9925 0.0864325 18.1431 0.058551V0H17.3122V0.058551C17.4656 0.0864325 17.5882 0.267662 17.6161 0.501867C17.3819 0.471197 17.2007 0.348519 17.1728 0.197959H17.1143V1.02883H17.1728C17.2007 0.875481 17.3819 0.752801 17.6161 0.72492H17.6105Z" fill="#1D1D1B"/>
<path id="Vector_108" d="M24.9454 13.7247C24.9261 13.6944 24.9096 13.6614 24.8931 13.6311C24.8986 13.6697 24.9151 13.7027 24.9454 13.7247Z" fill="#1D1D1B"/>
<path id="Vector_109" d="M24.8072 14.0801C24.573 13.9323 24.442 14.582 24.3555 14.6935C24.3137 14.7883 24.3499 14.8915 24.4364 14.9221L24.2635 15.2818C24.1715 15.2651 24.0906 15.3376 24.0906 15.4463C24.1269 15.5857 23.9875 16.1935 24.2328 16.2019V16.3692C23.6362 16.4751 23.7254 17.4175 24.3388 17.4008C24.9494 17.4147 25.0442 16.4835 24.4531 16.3692V16.2075C24.5451 16.2242 24.626 16.1517 24.626 16.043C24.5925 15.9063 24.7208 15.3208 24.5033 15.2902L24.6343 15.0169C24.8574 15.1396 24.9884 14.5039 25.0749 14.3952C25.1139 14.3059 25.0832 14.2056 25.0052 14.1721L25.1055 13.9658C25.0777 13.9295 25.0191 13.8431 24.9661 13.7511L24.81 14.0773L24.8072 14.0801ZM24.6957 16.8794C24.5507 17.7159 23.4745 16.8878 24.244 16.5337C24.2802 16.6145 24.4029 16.6173 24.4364 16.5337C24.5841 16.5783 24.6929 16.7149 24.6929 16.8766L24.6957 16.8794ZM24.4503 16.0234C24.467 15.9036 24.3109 15.8366 24.2496 15.9398C24.2663 15.8952 24.2077 15.4379 24.2914 15.4379C24.3276 15.463 24.3722 15.4686 24.4113 15.4407C24.4364 15.4435 24.4587 15.4714 24.4587 15.5021V15.9928C24.4587 15.9928 24.4587 16.0123 24.4531 16.0207L24.4503 16.0234ZM24.9048 14.3645C24.8797 14.3924 24.7124 14.8691 24.6566 14.8496C24.6343 14.8106 24.5814 14.7855 24.5395 14.7994C24.5144 14.7883 24.5033 14.752 24.5172 14.7214C24.5479 14.6879 24.704 14.2028 24.7765 14.2362C24.796 14.2808 24.8518 14.3115 24.8992 14.2976C24.9131 14.3143 24.9159 14.3394 24.9048 14.3617V14.3645Z" fill="#1D1D1B"/>
<path id="Vector_110" d="M12.8485 13.0264L12.9015 13.2299L13.8327 13.1156L13.7881 12.9316C13.7407 12.9204 13.1608 13.0291 13.1608 13.0291C13.1608 13.0291 13.7128 12.3851 13.6989 12.307L12.7593 12.413L12.7788 12.5747C12.8234 12.5691 13.3308 12.4966 13.3308 12.4966C13.3308 12.4966 12.8708 13.0152 12.8485 13.0264Z" fill="#1D1D1B"/>
<path id="Vector_111" d="M13.1799 14.2223C13.6316 14.6544 14.3398 13.963 13.8742 13.5197C13.4225 13.0847 12.7031 13.779 13.1799 14.2223ZM13.2329 13.7399C13.4309 13.3803 14.0889 13.5949 13.8156 14.0048C13.6121 14.3533 12.9652 14.1554 13.2329 13.7399Z" fill="#1D1D1B"/>
<path id="Vector_112" d="M13.8051 15.24L13.9612 15.4575C14.1285 15.2511 14.4714 15.003 14.7196 14.9082L14.5634 14.6907C14.5021 14.7911 14.3683 14.8887 14.2623 14.9612L14.0198 14.6266C14.1229 14.5513 14.2567 14.4537 14.3711 14.4259L14.2149 14.2084C14.0476 14.4147 13.7047 14.6628 13.4565 14.7576L13.6127 14.9751C13.674 14.8747 13.8079 14.7799 13.911 14.7047L14.1536 15.0392C14.0532 15.1145 13.9194 15.2121 13.8051 15.2372V15.24Z" fill="#1D1D1B"/>
<path id="Vector_113" d="M13.7158 11.9863L13.7298 11.7883C13.4621 11.8385 13.0327 11.8385 12.7678 11.7883L12.7539 11.9863C13.0216 11.9361 13.4509 11.9361 13.7158 11.9863Z" fill="#1D1D1B"/>
<path id="Vector_114" d="M20.485 16.0152C21.0566 15.767 20.9283 15.1982 20.2843 15.4575C20.0138 15.3822 20.354 15.1062 20.5352 15.1676H20.5408L20.4042 15.0031C20.2006 15.0923 19.8772 15.3627 20.0501 15.5941C20.17 15.7475 20.4097 15.583 20.5659 15.5858C20.828 15.6332 20.5464 15.9036 20.3847 15.8897" fill="#1D1D1B"/>
<path id="Vector_115" d="M22.0471 14.0355L22.2088 13.4862C22.1279 13.4918 21.3863 13.2771 21.3194 13.2269L21.166 13.7483L21.3194 13.8794H21.3222C21.311 13.7567 21.3277 13.6228 21.3696 13.4723L21.6512 13.5531C21.6233 13.634 21.5731 13.8208 21.5341 13.8682L21.6735 13.8877L21.7627 13.5838L22.0303 13.6619C21.9969 13.7623 21.9551 13.8403 21.8965 13.8989L22.0415 14.0299L22.0471 14.0355Z" fill="#1D1D1B"/>
<path id="Vector_116" d="M21.6731 14.7661L21.7596 14.5961L21.0291 14.1053L20.9482 14.2587C20.9761 14.2949 21.4529 14.5765 21.4529 14.5765C21.4529 14.5765 20.6666 14.6797 20.6304 14.741L21.3609 15.2429L21.4473 15.1202C21.4111 15.0979 21.0096 14.8358 21.0096 14.8358C21.0096 14.8358 21.6536 14.7634 21.6731 14.7689V14.7661Z" fill="#1D1D1B"/>
<path id="Vector_117" d="M19.6545 16.5588L20.1619 16.2661C20.0978 16.2159 19.7019 15.569 19.6879 15.491L19.2056 15.7698L19.2279 15.9677H19.2307C19.3059 15.8729 19.4147 15.7865 19.5541 15.7057L19.7046 15.951C19.6266 15.9928 19.4593 16.096 19.3952 16.1044L19.4844 16.2131L19.766 16.0514L19.911 16.2856C19.8162 16.3386 19.727 16.3664 19.6461 16.3692L19.66 16.5616L19.6545 16.5588Z" fill="#1D1D1B"/>
<path id="Vector_118" d="M13.9829 10.132C13.8324 10.0121 13.6344 10.2268 13.4811 10.2603C13.2162 10.277 13.4253 9.94521 13.587 9.9229L13.4588 9.82532C13.219 9.948 13.0378 10.4666 13.4253 10.4777C13.5062 10.4805 13.7181 10.3355 13.785 10.3216C13.9662 10.2882 13.9105 10.5307 13.7989 10.5893C13.8519 10.5893 13.9105 10.5781 13.9606 10.5921C14.061 10.4499 14.1251 10.2435 13.9802 10.132H13.9829Z" fill="#1D1D1B"/>
<path id="Vector_119" d="M14.1728 9.85319C13.749 9.82531 13.6598 9.09202 14.1728 9.20355V9.02511C13.5092 8.98607 13.5176 10.04 14.1728 10.0177V9.85319Z" fill="#1D1D1B"/>
<path id="Vector_120" d="M15.224 8.55405C15.224 8.55405 15.514 8.55405 15.5168 8.55405C15.4052 8.3784 15.316 8.23621 15.316 8.23621C15.4164 8.17765 15.6339 8.09122 15.7287 8.0968L15.4973 7.92114L14.7891 8.34494L14.8699 8.61539H14.8727C14.9313 8.50387 15.0149 8.41465 15.1097 8.36167C15.132 8.40071 15.171 8.47041 15.2184 8.55684L15.224 8.55405Z" fill="#1D1D1B"/>
<path id="Vector_121" d="M17.2926 8.43136C17.1532 8.54846 16.9719 8.50385 16.8214 8.42021C16.3808 8.66835 15.9041 8.08842 16.2582 7.71759C16.629 7.27428 17.3678 7.77614 17.011 8.26686C17.1281 8.35608 17.2201 8.41184 17.2898 8.43136H17.2926ZM16.7517 8.28916C17.1058 8.15254 16.7991 7.60328 16.484 7.73153C16.1327 7.86536 16.4366 8.41742 16.7517 8.28916Z" fill="#1D1D1B"/>
<path id="Vector_122" d="M17.4239 8.03816C17.4211 7.8876 17.4434 7.61715 17.3765 7.48889H17.6915C17.6413 7.63109 17.5493 8.28073 17.8198 8.24727C17.9257 8.24727 18.0317 8.17478 18.0289 8.06604C18.0233 7.9099 18.0484 7.62551 17.9815 7.49168H18.2966C18.2241 7.73704 18.2241 8.16362 18.2966 8.40898H18.0289C18.0345 8.38946 18.0373 8.3588 18.0373 8.31697C17.764 8.50936 17.3988 8.41456 17.4239 8.04094V8.03816Z" fill="#1D1D1B"/>
<path id="Vector_123" d="M18.7562 8.49263C18.812 8.26679 18.89 7.88202 19.0155 7.69243L18.7701 7.61157C18.7701 7.85414 18.6419 8.23054 18.561 8.46196C18.6242 8.4694 18.6884 8.47962 18.7534 8.49263H18.7562Z" fill="#1D1D1B"/>
<g id="Group_4">
<path id="Vector_124" d="M20.2485 11.5458H20.4047V9.06433H18.1128V11.5458H20.2485ZM18.1909 10.4166C18.1909 10.4166 18.1909 10.4389 18.1909 10.4417C18.1964 10.3943 18.2689 10.4277 18.2327 10.4612L18.2438 10.4723C18.3191 10.4807 18.3303 10.3692 18.255 10.3636L18.347 10.3218V10.2939L18.255 10.2549C18.3331 10.2465 18.3219 10.135 18.2438 10.1433L18.2327 10.1545C18.2689 10.1852 18.1964 10.2214 18.1909 10.174C18.1909 10.1768 18.1909 10.1991 18.1909 10.2019V9.21489H18.2689V9.1424H19.1193C19.1667 9.15076 19.1277 9.21489 19.097 9.18143L19.0859 9.19259C19.0775 9.26787 19.203 9.27344 19.203 9.19816L19.2476 9.28738H19.2755L19.3201 9.19816C19.3201 9.27344 19.4455 9.26787 19.4372 9.19259L19.426 9.18143C19.3953 9.21489 19.3563 9.15076 19.4037 9.1424H20.2541V9.21489H20.3322C20.3238 9.19816 20.3628 10.4249 20.2903 10.1545L20.2792 10.1433C20.2039 10.135 20.1928 10.2493 20.2708 10.2521L20.1788 10.2939V10.3218L20.2708 10.3608C20.1955 10.3664 20.2067 10.4807 20.2792 10.4723L20.2903 10.4612C20.3628 10.1824 20.3238 11.4371 20.3322 11.4008H20.2541V11.4733H19.4037C19.3563 11.4677 19.3926 11.4008 19.426 11.4343L19.4372 11.4231C19.4455 11.3506 19.3229 11.3423 19.3201 11.4147L19.2782 11.3283H19.2504L19.2085 11.4147C19.2058 11.3423 19.0859 11.3506 19.0914 11.4231L19.1026 11.4343C19.1333 11.4008 19.1723 11.4677 19.1249 11.4733H18.2773V11.4008H18.1992V10.4166H18.1909Z" fill="#1D1D1B"/>
<path id="Vector_125" d="M20.7416 11.6405C20.7416 11.5904 20.6859 11.5513 20.6357 11.5681V11.5792C20.5465 11.9891 20.5883 10.305 20.5799 10.3664L20.6636 10.3998V10.2046L20.5799 10.2381V8.99737C20.5911 8.93603 20.6887 8.98901 20.6357 9.02804V9.0392C20.75 9.07544 20.7835 8.89142 20.6608 8.89142L20.7361 8.76038L20.7193 8.74365L20.5827 8.81893C20.5827 8.70462 20.3876 8.7325 20.4238 8.84403H20.4349C20.4768 8.79384 20.5353 8.88306 20.4684 8.897H19.3225L19.3587 8.81893H19.1496L19.1859 8.897H18.0427C17.973 8.88585 18.0316 8.79384 18.0734 8.84403H18.0845C18.1208 8.73529 17.9284 8.70462 17.9284 8.81893C17.9284 8.81893 17.7918 8.74365 17.789 8.74365L17.7695 8.76038L17.8448 8.89142C17.7221 8.89142 17.7555 9.07544 17.8698 9.0392V9.02804C17.9591 8.62097 17.9172 10.2939 17.9256 10.2381L17.8448 10.2046V10.3998L17.9256 10.3664C17.9172 10.3357 17.9619 11.9779 17.8698 11.5792V11.5681C17.7555 11.5318 17.7221 11.7158 17.8448 11.7158L17.7695 11.8469L17.789 11.8636C17.789 11.8636 17.9256 11.7883 17.9284 11.7883C17.9284 11.9026 18.1236 11.8748 18.0845 11.7632H18.0734C18.0567 11.7911 18.0093 11.7772 18.0093 11.7437C18.0093 11.727 18.0232 11.713 18.0399 11.7102H19.1859L19.1496 11.7883H19.3587L19.3225 11.7102H20.4656C20.4823 11.7102 20.4963 11.727 20.4963 11.7437C20.4963 11.7772 20.4489 11.7911 20.4322 11.7632H20.421C20.3848 11.8748 20.5771 11.8998 20.5799 11.7883L20.7166 11.8636L20.7361 11.8469L20.6608 11.7158C20.7054 11.7158 20.7416 11.6824 20.7416 11.6405ZM19.3559 8.96949H20.5019V11.6405H18.012V10.2967V8.96949H19.3559Z" fill="#1D1D1B"/>
</g>
<path id="Vector_126" d="M9.91553 5.74353L9.97129 5.69892C9.9936 5.47029 10.0995 5.26676 10.2752 5.14129C10.264 5.12456 10.2501 5.11062 10.239 5.09668C10.041 5.24166 9.92389 5.48145 9.91553 5.74632V5.74353Z" fill="#1D1D1B"/>
<path id="Vector_127" d="M10.454 5.42018L10.507 5.40345C10.4707 5.30587 10.3955 5.12742 10.2839 5.01311C10.2588 4.98802 10.217 5.02426 10.2421 5.04936C10.3202 5.12742 10.3927 5.25847 10.4512 5.42018H10.454Z" fill="#1D1D1B"/>
<path id="Vector_128" d="M9.97455 5.23897C10.0805 5.24175 10.0833 5.07446 9.97455 5.07446C9.8686 5.07446 9.86582 5.23897 9.97455 5.23897Z" fill="#1D1D1B"/>
<path id="Vector_129" d="M11.5354 4.88485C11.4629 4.96291 11.343 4.8486 11.4155 4.77053C11.488 4.69246 11.6079 4.80956 11.5354 4.88485Z" fill="#1D1D1B"/>
<path id="Vector_130" d="M11.7 5.02413C11.6275 5.1022 11.5076 4.98788 11.5801 4.90981C11.6526 4.83175 11.7725 4.94885 11.7 5.02413Z" fill="#1D1D1B"/>
<path id="Vector_131" d="M10.9387 4.75667C10.8663 4.83474 10.7464 4.72043 10.8189 4.64236C10.8913 4.56429 11.0112 4.68139 10.9387 4.75667Z" fill="#1D1D1B"/>
<path id="Vector_132" d="M11.3484 4.79842C11.2759 4.87649 11.156 4.76217 11.2285 4.68411C11.301 4.60604 11.4209 4.72314 11.3484 4.79842Z" fill="#1D1D1B"/>
<path id="Vector_133" d="M11.544 5.06342L11.4715 5.07179C11.2931 4.9268 11.0728 4.85988 10.8609 4.89892C10.8581 4.8794 10.8553 4.85988 10.8525 4.84315C11.0951 4.80133 11.346 4.88777 11.544 5.06621V5.06342Z" fill="#1D1D1B"/>
<path id="Vector_134" d="M10.9248 5.22231L10.8746 5.2474C10.83 5.15261 10.7547 4.97416 10.752 4.81524C10.752 4.77899 10.8077 4.77621 10.8077 4.81245C10.8077 4.92119 10.8495 5.06617 10.9248 5.22231Z" fill="#1D1D1B"/>
<path id="Vector_135" d="M11.1443 4.75094C11.0718 4.829 10.9519 4.71469 11.0244 4.63662C11.0969 4.55855 11.2168 4.67566 11.1443 4.75094Z" fill="#1D1D1B"/>
<path id="Vector_136" d="M19.9724 13.5671C20.2094 13.5616 20.7614 13.3023 20.3599 13.0848C20.1341 13.0458 19.911 13.1573 19.6963 13.2075C18.8264 13.5532 19.3367 13.1294 18.7958 13.1768C18.977 13.6368 19.437 13.3999 19.7828 13.2911C19.7939 13.3413 19.7298 13.3552 19.7382 13.4054C19.8553 13.3803 19.964 13.358 20.0727 13.3357C20.1201 13.1099 20.5328 13.1071 20.3432 13.3357C19.8664 13.542 19.306 13.5058 18.8069 13.6452C18.4751 14.5179 17.8952 13.924 17.9008 14.175C17.7697 14.1861 17.7725 14.3116 17.9063 14.3032C17.9091 14.5569 18.5504 14.2642 18.6703 14.1861C18.6982 14.1248 18.7261 14.069 18.7512 14.0105C18.9463 14.1053 19.0829 13.8237 19.253 13.7763C19.4203 13.7428 19.6406 13.5783 19.7856 13.7316C19.9445 13.9073 20.1843 13.6396 20.3265 13.8181C20.2735 13.9547 20.3432 13.8961 20.3655 13.9826C20.3655 14.0606 20.491 14.0579 20.4938 13.9826C20.4938 13.9491 20.4965 13.9268 20.53 13.9129C20.6025 13.8041 20.4491 13.6842 20.3962 13.595C20.2791 13.4835 20.0839 13.6982 19.9668 13.5783L19.9724 13.5671Z" fill="#1D1D1B"/>
<path id="Vector_137" d="M17.8227 13.1824C17.8617 13.1964 17.8478 13.241 17.8645 13.2633C18.068 13.2772 18.2743 13.2215 18.4807 13.1964C18.634 13.1964 18.6284 13.0598 18.7427 13.0402C19.016 13.0542 19.1861 12.8144 19.4426 12.7754C19.6489 12.7168 19.9277 12.6415 20.1089 12.7865C20.1536 12.8367 20.2177 12.8451 20.2818 12.8339C20.3682 12.8172 20.4714 12.8005 20.5188 12.9008C20.5049 12.9176 20.4909 12.9315 20.4686 12.951C20.477 12.9705 20.4881 12.9928 20.4993 13.0152C20.5411 13.0124 20.5495 13.0458 20.5662 13.0737C20.5885 13.1127 20.6443 13.1127 20.6526 13.0737C20.6638 13.0263 20.714 13.0486 20.7279 13.0068C20.7363 12.8813 20.7084 12.7252 20.5829 12.6611C20.5216 12.6025 20.2762 12.7224 20.2707 12.5997C20.4519 12.6415 20.8032 12.4045 20.5634 12.2484C20.1563 12.1536 19.7102 12.3488 19.2976 12.3962C19.1359 12.4324 19.2167 12.1676 18.8571 12.24C19.0885 12.7224 19.5876 12.3795 19.9723 12.3767C19.9723 12.4213 19.8998 12.4185 19.9166 12.4715C20.0281 12.4352 20.2205 12.4966 20.2846 12.385C20.3208 12.2484 20.608 12.2791 20.5244 12.438C20.3069 12.5774 19.9863 12.5133 19.7325 12.5412C19.4203 12.5663 19.0829 12.5746 18.7902 12.6834C18.7316 12.8646 18.6535 13.0486 18.4444 13.0932C18.2994 12.951 18.0875 13.1183 17.9314 12.9761C17.8812 12.9873 17.8701 13.0179 17.8505 13.057C17.7753 13.0849 17.7474 13.1295 17.8254 13.1824H17.8227Z" fill="#1D1D1B"/>
<path id="Vector_138" d="M20.1144 14.4482C19.7074 14.3952 19.7687 14.6768 19.5679 14.6099C19.6042 14.5653 19.7046 14.5402 19.6711 14.4733C19.3728 14.6043 19.0605 14.6964 18.7622 14.8302C18.6116 14.9891 18.6618 15.3098 18.3189 15.3404C18.3077 15.5077 18.0735 15.6192 17.9285 15.544C17.87 15.5969 17.8951 15.6137 17.9034 15.6638C17.8532 15.7085 17.7863 15.8116 17.8923 15.8088C17.9257 15.8005 17.9508 15.7531 17.9871 15.767C17.9871 15.7893 17.9815 15.8088 17.9787 15.8339C18.0066 15.8339 18.0456 15.8423 18.054 15.8311C18.1014 15.7726 18.1683 15.82 18.2213 15.7754C18.3969 15.6583 18.6451 15.5495 18.6339 15.3042C18.9434 15.1676 19.1218 14.6685 19.5261 14.8441C19.7241 14.9529 19.7798 14.6294 19.9583 14.6211C20.0085 14.7382 20.0336 14.7298 20.0977 14.6908C20.2092 14.7772 20.1897 14.6406 20.2343 14.5765C20.2399 14.5151 20.1758 14.4426 20.1144 14.4426V14.4482Z" fill="#1D1D1B"/>
<path id="Vector_139" d="M18.2744 12.4908C18.2103 12.6749 18.2744 12.9202 18.4473 13.0234C18.6452 12.9342 18.7707 12.6776 18.701 12.463C18.7484 12.4239 18.8069 12.4044 18.7874 12.3375C18.7567 12.2622 18.6396 12.318 18.609 12.2315C18.5337 12.1312 18.4361 12.212 18.3776 12.2817C18.3329 12.2873 18.2883 12.265 18.2465 12.2845C18.2047 12.3626 18.3218 12.41 18.2716 12.4908H18.2744Z" fill="#1D1D1B"/>
<path id="Vector_140" d="M18.2242 15.081C18.4166 15.5383 18.7038 14.9556 18.6313 14.7074C18.7624 14.5987 18.7261 14.5346 18.5672 14.5234C18.5114 14.4035 18.3887 14.3896 18.3051 14.4927C18.2744 14.529 18.2326 14.515 18.1936 14.5206C18.1127 14.5596 18.1573 14.6489 18.2298 14.6684C18.1908 14.8078 18.1713 14.9444 18.2242 15.081Z" fill="#1D1D1B"/>
<path id="Vector_141" d="M18.7477 13.3802C18.7115 13.3579 18.6641 13.3579 18.6223 13.3606C18.5553 13.1822 18.4299 13.2491 18.3323 13.3551C18.1845 13.2965 18.2068 13.4303 18.2849 13.5028C18.2096 13.6841 18.2626 13.9517 18.455 14.0298C18.6585 13.9462 18.7143 13.698 18.7031 13.5001C18.7672 13.4889 18.8174 13.4192 18.7505 13.3802H18.7477Z" fill="#1D1D1B"/>
<path id="Vector_142" d="M20.2068 13.9797C19.8416 13.857 19.27 14.6488 19.0274 14.4174C18.9689 14.2892 18.7877 14.3031 18.6733 14.3393C18.81 14.4369 18.8852 14.6544 19.0916 14.5847C19.3258 14.5401 19.5098 14.3505 19.7133 14.2641C19.7189 14.331 19.6492 14.3617 19.6213 14.4258C19.7607 14.3812 19.8862 14.3421 19.9866 14.2557C19.9698 13.8737 20.5163 14.1414 19.9921 14.3756C20.0841 14.3756 20.1511 14.4202 20.2124 14.3421C20.3323 14.2334 20.3407 14.0773 20.204 13.9825L20.2068 13.9797Z" fill="#1D1D1B"/>
<path id="Vector_143" d="M19.3784 14.8691C19.2725 14.897 19.1637 14.9054 19.0996 15.0141C19.1275 15.0504 19.1526 15.0838 19.1804 15.1201C19.1303 15.2511 18.9964 15.2288 18.8737 15.2344C18.8849 15.2762 18.8905 15.2985 18.8988 15.3264C18.8459 15.3543 18.8263 15.4017 18.8375 15.4658C18.8514 15.4714 18.8682 15.4769 18.8849 15.4825C18.9184 15.4407 18.9825 15.3961 18.9964 15.4769C19.2195 15.4044 19.4202 15.2678 19.5262 15.0587C19.462 15.0085 19.4091 14.9528 19.3812 14.8663L19.3784 14.8691Z" fill="#1D1D1B"/>
<path id="Vector_144" d="M19.0825 14.0803C19.0351 14.0803 19.0239 14.1416 19.0574 14.1695C19.0908 14.2057 19.1215 14.1667 19.1577 14.1778C19.1577 14.1974 19.1577 14.2141 19.1605 14.2308C19.3557 14.242 19.6512 14.0691 19.7544 13.9102C19.7126 13.8461 19.6736 13.7847 19.6317 13.7206C19.5258 13.754 19.4059 13.7513 19.3418 13.8488C19.3808 13.8907 19.4143 13.9241 19.4505 13.9632C19.378 14.0022 19.2972 14.0691 19.2191 14.005C19.1884 13.9771 19.0992 13.9882 19.1215 14.0468C19.1243 14.0552 19.1215 14.0663 19.1187 14.0775C19.1048 14.0775 19.0936 14.0803 19.0825 14.0803Z" fill="#1D1D1B"/>
<path id="Vector_145" d="M18.2519 15.2678C18.1794 15.1256 18.0651 14.9974 18.0121 14.8496C18.0762 14.7604 18.0483 14.6433 17.9284 14.7158C17.8978 14.6544 17.8532 14.6433 17.7974 14.6572C17.7807 14.6962 17.7723 14.7353 17.8141 14.7632C17.8141 14.7632 17.8141 14.7743 17.8141 14.7799C17.8002 14.7855 17.7862 14.7883 17.7751 14.7938C17.7444 14.8719 17.8225 14.9165 17.8504 14.9779C17.934 15.1117 18.0595 15.4323 18.2546 15.265L18.2519 15.2678Z" fill="#1D1D1B"/>
<path id="Vector_146" d="M18.2515 12.9398C18.2403 12.7446 18.0145 12.6192 18.0842 12.4212C18.1009 12.385 18.0953 12.3404 18.0591 12.3125C18.0145 12.3236 17.9764 12.319 17.9448 12.2985C17.8611 12.2567 17.8472 12.3515 17.8556 12.4101C17.8388 12.4184 17.8221 12.424 17.7998 12.4352C17.8584 12.6025 18.034 13.0235 18.2543 12.9398H18.2515Z" fill="#1D1D1B"/>
<path id="Vector_147" d="M17.8171 13.6034C17.9008 13.7289 17.9231 13.9324 18.0653 14.0049C18.1294 14.0049 18.2298 14.0634 18.266 13.9882C18.2242 13.8376 18.0374 13.7512 18.0653 13.5783C18.0736 13.5393 18.0597 13.4974 18.0262 13.464C17.9538 13.4863 17.8032 13.3218 17.859 13.517C17.8143 13.5337 17.7865 13.5644 17.8171 13.6062V13.6034Z" fill="#1D1D1B"/>
<path id="Vector_148" d="M14.5854 9.69416C14.616 9.69416 14.6467 9.6607 14.6802 9.69416C14.6774 9.71089 14.6746 9.72762 14.6718 9.74434C14.8698 9.83078 15.0872 9.73319 15.2852 9.68022C15.3633 9.65512 15.4079 9.57706 15.4943 9.57984C15.6978 9.59378 15.8149 9.42371 15.9878 9.37352C16.2025 9.3317 16.4228 9.29824 16.643 9.30103C16.8967 9.64676 16.9414 9.354 17.17 9.47111C17.1644 9.50456 17.156 9.53802 17.1505 9.57427C17.1728 9.58263 17.1923 9.58821 17.209 9.59378C17.1867 9.68022 17.315 9.7304 17.3317 9.62167C17.3317 9.60773 17.3289 9.591 17.3456 9.58821C17.4795 9.51572 17.2731 9.15883 17.1309 9.25084C17.0585 9.2843 16.9609 9.32055 16.9051 9.23132C17.0306 9.18114 17.1867 9.19229 17.2731 9.07519C17.3373 8.99712 17.3317 8.84098 17.209 8.79916C16.8912 8.70994 16.5566 8.87165 16.236 8.89953C15.6337 9.06403 16.0631 8.77128 15.5863 8.77407C15.7564 9.26478 16.2722 8.94972 16.6263 8.91348C16.6012 8.97203 16.5426 8.99154 16.5176 9.04452C16.643 9.01943 16.8103 9.06682 16.9023 8.96924C16.9497 8.83541 17.2704 8.81868 17.1951 9.0027C16.894 9.29545 15.9516 9.02221 15.5333 9.20902C15.472 9.4014 15.3605 9.52687 15.1765 9.57984C15.0259 9.48783 14.959 9.59379 14.8084 9.55196C14.7666 9.50456 14.7248 9.45438 14.6606 9.50456C14.6606 9.52408 14.6606 9.54638 14.6606 9.57427C14.5909 9.55475 14.5101 9.65234 14.5854 9.69695V9.69416Z" fill="#1D1D1B"/>
<path id="Vector_149" d="M15.1095 8.94995C14.998 9.15348 15.0315 9.3375 15.1625 9.50758C15.4106 9.51594 15.511 9.17858 15.4692 8.97504C15.4943 8.95831 15.5194 8.94158 15.5445 8.92207C15.5361 8.89418 15.5305 8.87188 15.525 8.84678C15.4803 8.84678 15.4385 8.844 15.3995 8.84121C15.3103 8.72689 15.2573 8.72411 15.1486 8.82727C15.1002 8.80868 15.0593 8.82076 15.0259 8.86351C15.0426 8.89976 15.0677 8.92764 15.1039 8.94716L15.1095 8.94995Z" fill="#1D1D1B"/>
<path id="Vector_150" d="M16.3139 9.38769C16.3028 9.44346 16.3558 9.46855 16.3641 9.51316C16.2972 9.55498 16.2275 9.55777 16.155 9.56892C16.1188 9.53268 16.102 9.46576 16.0379 9.48528C16.0017 9.49364 16.0212 9.53268 15.9933 9.54941C15.945 9.54569 15.9171 9.568 15.9097 9.61632C15.932 9.63026 15.9543 9.6442 15.9766 9.65536C15.9236 9.91187 16.6179 9.64421 16.721 9.56892C16.6876 9.51316 16.643 9.47134 16.6318 9.40721C16.6039 9.29569 16.3976 9.3877 16.3112 9.39048L16.3139 9.38769Z" fill="#1D1D1B"/>
<path id="Vector_151" d="M15.0121 9.41841C15.0037 9.32919 14.9814 9.22324 14.9117 9.1619C14.8337 9.08104 14.8058 8.96951 14.8866 8.88029C14.8476 8.84126 14.7918 8.87193 14.7528 8.81895C14.7026 8.7604 14.672 8.82732 14.6608 8.88866C14.5186 8.90817 14.5995 8.95557 14.6329 9.03085C14.6803 9.1619 14.8476 9.47417 15.0121 9.41562V9.41841Z" fill="#1D1D1B"/>
<path id="Vector_152" d="M17.1141 10.3718C17.0416 10.4052 16.9441 10.4415 16.8855 10.3522C17.011 10.2993 17.1699 10.3132 17.2563 10.1933C17.3205 10.1152 17.3149 9.95632 17.1922 9.9145C16.8716 9.82528 16.5342 9.98699 16.2108 10.0149C15.603 10.1794 16.0379 9.88383 15.5556 9.88662C15.7284 10.3801 16.247 10.0623 16.6067 10.026C16.5816 10.0846 16.5231 10.1069 16.498 10.1571C16.6262 10.132 16.7935 10.1794 16.8883 10.0818C16.9385 9.94517 17.2591 9.93123 17.1838 10.1152C16.8799 10.4108 15.932 10.1348 15.5082 10.3244C15.444 10.5167 15.3325 10.645 15.1485 10.698C15.0202 10.6199 14.9505 10.684 14.8418 10.6785C14.8474 10.7147 14.8557 10.7482 14.8669 10.7844C14.8753 10.8206 14.8808 10.8569 14.8836 10.8931C15.0119 10.8792 15.1401 10.829 15.26 10.7983C15.3381 10.7732 15.3827 10.6952 15.4691 10.6952C15.6755 10.7091 15.7926 10.539 15.9682 10.4889C16.1857 10.447 16.406 10.4136 16.629 10.4164C16.8855 10.7649 16.9301 10.4693 17.1588 10.5864C17.1532 10.6199 17.1448 10.6534 17.1392 10.6896C17.1615 10.698 17.1811 10.7035 17.1978 10.7091C17.1755 10.7956 17.3037 10.8457 17.3205 10.737C17.3205 10.7231 17.3177 10.7063 17.3344 10.7035C17.471 10.6283 17.2619 10.2686 17.1169 10.3634L17.1141 10.3718Z" fill="#1D1D1B"/>
<path id="Vector_153" d="M15.0765 10.0652C14.9649 10.2715 14.9984 10.4556 15.1294 10.6284C15.3776 10.6368 15.4807 10.2966 15.4389 10.0903C15.464 10.0736 15.4891 10.0568 15.5142 10.0373C15.5058 10.0094 15.5003 9.98714 15.4947 9.96205C15.4501 9.96205 15.4083 9.95926 15.3692 9.95647C15.28 9.83937 15.2242 9.83937 15.1183 9.94253C15.07 9.92394 15.0291 9.93603 14.9956 9.97878C15.0123 10.015 15.0374 10.0429 15.0765 10.0624V10.0652Z" fill="#1D1D1B"/>
<path id="Vector_154" d="M16.2915 10.5085C16.2803 10.5671 16.3333 10.5894 16.3417 10.6368C16.2748 10.6814 16.2023 10.6814 16.1326 10.6925C16.0963 10.6563 16.0796 10.5866 16.0155 10.6061C15.9792 10.6145 15.9987 10.6535 15.9709 10.6702C15.9225 10.6665 15.8946 10.6888 15.8872 10.7372C15.9095 10.7511 15.9318 10.765 15.9541 10.7762C15.8984 11.0327 16.601 10.765 16.7069 10.6898C16.6735 10.6312 16.6289 10.5922 16.6149 10.5253C16.587 10.4137 16.3779 10.5057 16.2915 10.5085Z" fill="#1D1D1B"/>
<path id="Vector_155" d="M14.9783 10.5392C14.9699 10.45 14.9476 10.3441 14.8779 10.2799C14.797 10.1991 14.7719 10.0848 14.8528 9.99834C14.811 9.9593 14.758 9.98997 14.719 9.937C14.6688 9.87844 14.6381 9.94536 14.6242 10.0067C14.482 10.0262 14.5628 10.0736 14.5963 10.1517C14.6437 10.2827 14.8138 10.6006 14.9783 10.542V10.5392Z" fill="#1D1D1B"/>
<path id="Vector_156" d="M17.1395 11.4203C17.067 11.4538 16.9695 11.49 16.9109 11.4008C17.0364 11.3506 17.1953 11.3618 17.2817 11.2419C17.3459 11.1638 17.3403 11.0049 17.2176 10.9631C16.897 10.8739 16.5596 11.0356 16.2362 11.0635C15.6311 11.228 16.0633 10.9324 15.581 10.9352C15.7538 11.4287 16.2696 11.1109 16.6293 11.0746C16.6042 11.1332 16.5457 11.1555 16.5206 11.2057C16.646 11.1806 16.8133 11.228 16.9081 11.1304C16.9583 10.9938 17.2789 10.9798 17.2037 11.1638C16.8998 11.4594 15.9518 11.1833 15.5308 11.3729C15.4666 11.5653 15.3551 11.6936 15.1711 11.7466C15.0205 11.6545 14.9508 11.7605 14.8003 11.7187C14.7863 11.7019 14.7696 11.6852 14.7557 11.6713C14.7501 11.6713 14.7473 11.6657 14.7445 11.6629C14.7389 11.6601 14.7334 11.6573 14.7278 11.6545C14.7278 11.6545 14.7278 11.6601 14.7278 11.6629C14.7278 11.7521 14.7083 11.8386 14.6748 11.9194C14.87 11.9975 15.0875 11.9027 15.2798 11.8497C15.3579 11.8246 15.4025 11.7466 15.4889 11.7493C15.6925 11.7633 15.8096 11.5932 15.9852 11.543C16.2027 11.5012 16.423 11.4677 16.646 11.4705C16.8998 11.819 16.9472 11.5235 17.1758 11.6406C17.1702 11.6741 17.1618 11.7075 17.1563 11.7438C17.1786 11.7521 17.1981 11.7577 17.2148 11.7633C17.1925 11.8497 17.3208 11.8999 17.3375 11.7912C17.3375 11.7772 17.3347 11.7605 17.3514 11.7577C17.4881 11.6824 17.2789 11.3228 17.134 11.4175L17.1395 11.4203Z" fill="#1D1D1B"/>
<path id="Vector_157" d="M15.1019 11.1164C14.9903 11.3227 15.0238 11.5067 15.1548 11.6796C15.403 11.6879 15.5061 11.3478 15.4643 11.1443C15.4894 11.1275 15.5145 11.1108 15.5396 11.0913C15.5312 11.0634 15.5257 11.0411 15.5201 11.016C15.4755 11.016 15.4336 11.0132 15.3946 11.0104C15.3054 10.8933 15.2496 10.8933 15.1437 10.9965C15.0953 10.9779 15.0545 10.99 15.021 11.0327C15.0377 11.069 15.0628 11.0969 15.1019 11.1164Z" fill="#1D1D1B"/>
<path id="Vector_158" d="M16.3169 11.5567C16.3057 11.6153 16.3587 11.6376 16.3671 11.6822C16.3002 11.7268 16.2277 11.7268 16.158 11.738C16.1217 11.7017 16.105 11.632 16.0409 11.6515C16.0046 11.6599 16.0241 11.6989 15.9962 11.7156C15.9479 11.7119 15.92 11.7342 15.9126 11.7826C15.9349 11.7965 15.9572 11.8104 15.9795 11.8216C15.9265 12.0781 16.6264 11.8104 16.7295 11.7352C16.6961 11.6766 16.6515 11.6376 16.6375 11.5707C16.6096 11.4591 16.4005 11.5511 16.3141 11.5539L16.3169 11.5567Z" fill="#1D1D1B"/>
<path id="Vector_159" d="M14.9034 11.3308C14.8895 11.3141 14.8755 11.3002 14.8644 11.2806C14.8588 11.328 14.8839 11.381 14.8755 11.4256C14.87 11.4619 14.8588 11.5148 14.8477 11.5483C14.9062 11.6041 14.9397 11.6096 15.0038 11.5873C14.9954 11.4981 14.9731 11.3922 14.9034 11.328V11.3308Z" fill="#1D1D1B"/>
<path id="Vector_160" d="M18.5446 9.5214C18.6004 9.55485 18.6394 9.71657 18.6729 9.73887C18.7342 9.81973 18.8653 10.04 18.9935 9.99538C19.0326 9.97587 19.0688 9.86713 19.0688 9.8504C19.0688 9.84482 19.0465 9.82531 19.0214 9.80858C18.9015 9.70541 18.829 9.60225 18.8262 9.50746C18.8207 9.47679 18.8959 9.43496 18.8904 9.40429C18.8904 9.29555 18.7984 9.41823 18.7621 9.39872C18.7426 9.36805 18.6757 9.27883 18.6339 9.32065C18.6088 9.3318 18.6394 9.39593 18.6199 9.41266C18.6115 9.42381 18.606 9.4266 18.5753 9.4266C18.4777 9.4266 18.4666 9.48515 18.5446 9.5214Z" fill="#1D1D1B"/>
<path id="Vector_161" d="M19.0578 10.2576C19.0885 10.2269 19.1861 10.1321 19.1972 10.1098C19.2056 10.0875 19.2112 10.0875 19.2781 10.0819C19.4649 10.0541 19.5597 9.97877 19.6127 9.77803C19.6377 9.71669 19.6043 9.58843 19.568 9.55776C19.5541 9.54661 19.5457 9.52709 19.5569 9.52152C19.5904 9.51594 19.6656 9.48806 19.6768 9.44624C19.6573 9.4072 19.6071 9.43787 19.543 9.41557C19.4956 9.39326 19.3645 9.35423 19.3143 9.38211C19.2781 9.42672 19.0578 9.4323 19.0996 9.49642C19.108 9.52152 19.1247 9.57449 19.1247 9.57449L19.2251 9.58564V9.65814C19.2251 9.65814 19.1554 9.67487 19.1303 9.67765C19.0718 9.76409 19.2725 9.77245 19.3255 9.70275C19.3617 9.66092 19.4175 9.65535 19.4147 9.70275C19.3868 9.7613 19.292 9.78918 19.2363 9.81706C19.1526 9.831 19.1303 9.9955 19.0662 10.0513C18.8822 10.0847 18.818 10.0819 18.6368 9.93416C18.5699 9.85888 18.5197 9.91465 18.5671 9.97599C18.5336 9.98714 18.3664 9.89234 18.4416 10.0541L18.4528 10.068C18.3691 10.1879 18.4946 10.1461 18.5615 10.1823C18.7093 10.2409 18.871 10.2855 19.0606 10.252L19.0578 10.2576Z" fill="#1D1D1B"/>
<path id="Vector_162" d="M19.6439 10.1431L19.722 10.3048C19.722 10.3048 19.8892 10.3801 19.9115 10.4024C20.0063 10.4721 19.9896 10.6589 19.906 10.6394C19.7666 10.5836 19.6857 10.3884 19.5881 10.2658C19.563 10.2462 19.4961 10.0483 19.4543 10.0985C18.8827 10.2267 19.5574 10.3717 19.4543 10.5836C19.4348 10.6143 19.3706 10.7621 19.3957 10.7844C19.4431 10.8429 19.5519 10.8847 19.6076 10.96C19.6996 11.052 19.616 11.1552 19.5017 11.0715C19.4376 11.0214 19.3595 11.0938 19.4264 11.158C19.432 11.1719 19.3874 11.1886 19.379 11.1942C19.3121 11.2862 19.4236 11.2834 19.4822 11.236C19.5156 11.2193 19.4822 11.3169 19.5379 11.303C19.6411 11.2807 19.8028 11.2277 19.8307 11.066C19.8948 10.9154 19.7443 10.9405 19.708 10.8095C19.6718 10.7565 19.669 10.5585 19.7498 10.631C19.8251 10.7258 19.9255 10.7816 20.0203 10.6951C20.1067 10.6143 20.0286 10.4191 19.984 10.3327C19.9004 10.1598 19.8056 9.99531 19.814 9.78899C19.9283 9.65237 20.0649 9.89772 20.1458 9.51575C19.8753 9.53526 19.6104 9.7165 19.7443 10.0176C19.8251 10.1877 19.8084 10.1765 19.6467 10.1431H19.6439Z" fill="#1D1D1B"/>
<path id="Vector_163" d="M19.2081 10.4667C19.0659 10.4584 18.9572 10.4472 18.9962 10.6173C19.0046 10.6591 19.0185 10.7818 19.0436 10.8097C19.0548 10.8264 19.052 10.8431 19.0381 10.8543C18.9795 10.8878 18.762 10.7985 18.7899 10.7233C18.7899 10.6619 18.7286 10.648 18.7091 10.6898C18.6979 10.7093 18.684 10.7093 18.6617 10.6842C18.6226 10.6257 18.5641 10.7037 18.5892 10.7483C18.5975 10.7651 18.5892 10.7846 18.5669 10.7874C18.5083 10.8125 18.5111 10.8933 18.5947 10.8961C18.776 10.9798 18.9349 11.0662 19.1468 11.0383H19.144C19.3754 11.0216 19.2555 10.977 19.2444 10.818C19.2053 10.6452 19.5009 10.5337 19.2081 10.464V10.4667Z" fill="#1D1D1B"/>
<path id="Vector_164" d="M19.4259 12.9315C19.4119 12.9175 19.3729 12.9315 19.3701 12.9426C19.3701 13.0207 19.2893 12.9984 19.2642 13.0514C19.2809 13.0848 19.3032 13.1099 19.3394 13.1071C19.3841 13.1043 19.3813 13.1573 19.4203 13.1601C19.6099 13.0737 19.8357 13.0932 19.9974 12.9454C19.9361 12.8924 19.9222 12.8227 19.9082 12.7502C19.7995 12.7586 19.6907 12.7419 19.596 12.7949C19.5876 12.845 19.621 12.8729 19.6461 12.9147C19.5681 12.9482 19.4984 12.9649 19.4259 12.9315Z" fill="#1D1D1B"/>
<path id="Vector_165" d="M22.465 11.0745C22.3897 10.9128 22.2169 10.015 21.966 10.2102C23.1147 12.3542 22.3479 15.1731 20.3572 16.5281C19.7717 16.8822 19.0467 17.4677 18.3553 17.0774C18.8014 15.3376 20.9399 16.0736 21.4055 12.7585C21.3498 12.7306 21.3275 12.7139 21.2745 12.7028C21.2076 13.1656 21.0905 13.6117 20.9176 14.0383C21.1044 13.5448 20.9845 12.0002 21.0208 11.9165C21.0012 11.8914 20.9817 11.8803 20.9176 11.8022C20.9288 11.989 20.9176 12.0559 20.9176 12.3041H17.6722V8.91924H20.8591V10.8291C20.8591 10.8291 20.8702 10.9295 20.8786 10.963C20.9232 10.8933 20.9288 10.896 20.9594 10.8737V8.82166H14.279L14.2734 10.5531H14.371V8.92203H17.5774V12.3068H14.4853C14.4853 12.3068 14.4853 12.2539 14.477 12.2622C14.477 12.2539 14.4547 12.3152 14.4547 12.3068H14.3682C14.3682 12.1479 14.3682 12.0531 14.3682 12.0475H14.2706C14.1981 12.2985 14.41 14.4231 14.7586 14.7939C14.0615 14.1164 13.8413 12.9175 13.9723 12.0113C13.9723 12.0113 13.9082 11.9611 13.8357 11.897C13.6154 13.1712 14.0978 14.4286 14.99 15.3404C15.0681 15.424 15.1545 15.3348 15.2493 15.3097C15.2298 15.2902 15.1879 15.2567 15.1601 15.2177C15.1963 15.2539 15.227 15.2874 15.2493 15.3097L15.1991 15.1731C14.4993 14.6377 14.3822 13.107 14.3682 12.4044H17.5746C17.5746 12.4044 17.5746 16.6508 17.569 16.6592C16.8859 16.6257 16.4259 15.8868 15.7679 15.8785C16.7131 16.4389 18.4417 17.7911 19.5347 17.1973C19.543 17.2084 19.5403 17.2056 19.5486 17.2168C19.4343 17.3618 19.03 17.6322 18.8488 17.5625C18.5505 17.3841 18.0932 17.7103 18.3023 18.0421C18.3302 18.0811 18.3469 18.1146 18.3135 18.1676C17.1313 18.056 16.069 17.3506 15.0736 16.7456C15.0653 16.7567 15.0653 16.754 15.0569 16.7651C15.4389 17.2809 16.8023 17.9194 16.8023 17.9194V18.6861C16.8023 18.6861 16.8887 18.7447 16.9473 18.7837V17.9556C17.3042 18.0783 18.0291 18.3042 18.0291 18.3042V18.8228L18.1685 18.7335L18.1601 18.346L18.3525 18.293C18.4752 18.2596 18.5532 18.1425 18.5365 18.017C18.478 17.9891 18.4389 17.9306 18.4557 17.8497C18.4835 17.6991 18.6676 17.6963 18.7401 17.7856C18.8878 17.8525 19.0328 17.674 19.1778 17.6322C19.3841 17.5068 19.6378 17.398 19.7326 17.161C19.7522 17.1025 19.7828 17.0662 19.833 17.0383C20.2484 16.8014 20.6499 16.5421 20.9873 16.2019C22.4344 14.9779 22.939 12.8756 22.4567 11.0773L22.465 11.0745ZM17.6722 12.4016H20.9176C21.1825 14.8831 19.7298 15.7112 17.6722 16.5755V12.4016ZM17.7307 16.8348C17.9594 16.6313 18.1183 16.5588 18.4138 16.4891C18.333 16.6731 18.2549 16.846 18.1713 17.0328C18.0235 16.9659 17.8785 16.9017 17.728 16.8348H17.7307Z" fill="#1D1D1B"/>
<g id="Group_5">
<path id="Vector_166" d="M10.4899 17.9194C10.4146 17.8748 10.3226 17.8608 10.2139 17.8776C10.2362 18.0421 10.2975 18.346 10.3449 18.5049C10.6516 18.4603 10.7436 18.0783 10.4899 17.9194Z" fill="#1D1D1B"/>
<path id="Vector_167" d="M14.6606 16.7902C12.8232 16.7929 10.9941 17.5764 9.15396 17.5764C8.93369 17.5764 8.71343 17.5653 8.49316 17.5402C9.06195 17.9891 9.02291 18.8924 9.851 18.8924C9.88724 18.8924 9.92349 18.8924 9.96252 18.8869C11.0889 18.767 12.207 18.4491 13.3139 18.2735C13.5035 18.2456 14.4208 18.0197 14.9589 18.0197C15.1513 18.0197 15.2963 18.0476 15.3381 18.1257C15.3966 18.2316 15.0314 18.5383 15.0286 18.5523C15.0286 18.5551 15.0286 18.5579 15.0342 18.5579C15.0704 18.5579 15.2712 18.4407 15.4217 18.3404C16.0212 17.911 14.7665 16.7902 14.6578 16.7902H14.6606ZM10.7906 18.3153C10.6902 18.5523 10.3919 18.608 10.1577 18.6471C10.1688 18.5746 10.0267 17.8859 9.98204 17.8246C10.3863 17.6517 10.9635 17.819 10.7906 18.3153ZM11.0276 18.4603C11.0388 18.2233 10.9607 17.8469 10.8519 17.635L11.0861 17.5848C11.075 17.8218 11.1531 18.1982 11.2618 18.4101L11.0276 18.4603ZM11.931 18.2651L11.4486 18.371C11.4598 18.2986 11.3036 17.6238 11.2618 17.5625L11.7692 17.451L11.7274 17.621C11.6577 17.6015 11.5741 17.6015 11.4821 17.621L11.5378 17.8664L11.8194 17.805L11.864 17.9249C11.8083 17.9166 11.6382 17.9584 11.5629 17.9723L11.6215 18.2288C11.7609 18.1982 11.8724 18.1536 11.9644 18.0922L11.9282 18.2707L11.931 18.2651ZM12.4245 18.1898C12.0732 18.1982 12.023 17.6963 11.9421 17.451L12.1122 17.4203C12.193 17.635 12.1707 18.1396 12.5332 18.0727C12.7925 17.9556 12.5834 17.5402 12.5555 17.3422L12.7228 17.3171C12.7869 17.6489 12.9375 18.2261 12.4273 18.1926L12.4245 18.1898ZM13.8158 17.9389L13.3362 18.0504C13.3446 17.9779 13.1828 17.306 13.1438 17.2446L13.6485 17.1275L13.6094 17.2976C13.5397 17.2781 13.4561 17.2781 13.3641 17.2976L13.4226 17.543L13.7014 17.4788L13.7488 17.5987C13.6931 17.5904 13.523 17.635 13.4477 17.6489L13.5091 17.9054C13.6457 17.8748 13.76 17.8274 13.8492 17.7632L13.8158 17.9445V17.9389ZM14.3232 17.1192L14.4598 17.8162L14.2981 17.8441L14.1559 17.1498C14.0583 17.1666 14.0026 17.1666 13.8687 17.2251L13.8631 17.069L14.5574 16.9798L14.6048 17.1108C14.5407 17.0885 14.3204 17.1164 14.3204 17.1164L14.3232 17.1192Z" fill="#1D1D1B"/>
</g>
<g id="Group_6">
<path id="Vector_168" d="M23.1726 17.5653C23.1336 17.7187 23.0723 18.0086 23.0527 18.1648C23.4124 18.24 23.5267 17.6378 23.1726 17.5653Z" fill="#1D1D1B"/>
<path id="Vector_169" d="M24.5833 17.8107C24.3072 17.7438 24.218 18.3182 24.4466 18.4074C24.7282 18.4743 24.8119 17.9027 24.5833 17.8107Z" fill="#1D1D1B"/>
<path id="Vector_170" d="M23.8644 17.7047L23.7808 18.0086C24.015 18.0532 24.1153 17.7437 23.8644 17.7047Z" fill="#1D1D1B"/>
<path id="Vector_171" d="M21.6533 17.2669C21.3661 17.1889 21.2546 17.7827 21.4972 17.8831C21.7899 17.9612 21.8959 17.3701 21.6533 17.2669Z" fill="#1D1D1B"/>
<path id="Vector_172" d="M25.7659 17.5737C25.5345 17.5737 25.317 17.5709 25.211 17.5597C24.001 17.4426 22.8021 17.0969 21.592 16.9045C21.2435 16.8488 20.9591 16.7986 20.7109 16.7986C20.1979 16.7986 19.8494 17.0216 19.4368 17.9027C19.2611 18.2373 19.8494 18.5579 19.9804 18.5719C19.4953 18.1592 19.6654 18.0365 20.0474 18.0365C20.5771 18.0365 21.5139 18.2707 21.6952 18.293C22.8021 18.4687 23.9229 18.7865 25.0465 18.9064C25.0856 18.9092 25.1246 18.912 25.1608 18.912C25.9889 18.912 25.9499 18.0086 26.5187 17.5597C26.4183 17.5681 26.0809 17.5765 25.7687 17.5765L25.7659 17.5737ZM21.21 17.0886C21.1821 17.1136 21.0846 17.8023 21.0901 17.8692L20.9061 17.833C20.9396 17.7744 20.9842 17.2949 20.9842 17.2949L20.6663 17.7884L20.4795 17.2335C20.4795 17.2335 20.4043 17.6322 20.4015 17.7605L20.2202 17.7354C20.2788 17.6406 20.3931 16.9352 20.3931 16.9352L20.5799 16.9714C20.5855 17.0077 20.7277 17.49 20.7277 17.49C20.7277 17.49 20.9786 17.0718 20.9926 17.0495L21.2128 17.0913L21.21 17.0886ZM21.8903 17.6964C21.723 18.2596 21.0734 17.9529 21.2658 17.4482C21.4303 16.9017 22.0827 17.1917 21.8903 17.6964ZM22.5316 18.1899C22.4758 18.1787 22.1664 17.5514 22.1664 17.5514C22.1664 17.5514 22.0911 18.0365 22.0716 18.0728L21.9322 18.0533L22.0911 17.2893L22.2472 17.3088C22.2472 17.3283 22.4926 17.8441 22.4926 17.8441C22.4926 17.8441 22.5734 17.4259 22.5818 17.3897L22.6989 17.4231L22.5316 18.1899ZM23.2537 18.2568C23.145 18.2958 22.9861 18.2512 22.8746 18.2289L23.0279 17.4426C23.5381 17.4092 23.75 18.07 23.2537 18.2568ZM24.1599 17.8943C24.1376 17.9835 24.0707 18.0449 23.9619 18.0783C24.0093 18.2345 24.0372 18.2847 24.1181 18.452L23.9954 18.4352C23.9703 18.4213 23.8142 18.2038 23.7696 18.0839C23.7417 18.1815 23.7138 18.3042 23.7249 18.3934L23.5158 18.36C23.5549 18.2986 23.7194 17.6573 23.711 17.5876C23.8922 17.6099 24.2184 17.6434 24.1627 17.8915L24.1599 17.8943ZM24.5614 18.5189C24.093 18.6053 24.0958 17.8163 24.4694 17.7075C24.9378 17.6099 24.9406 18.4101 24.5614 18.5189ZM25.0493 18.056C25.0326 18.1954 24.9657 18.4798 24.9908 18.6137L24.8067 18.5886C24.8876 18.3823 24.9434 18.0337 24.9294 17.8135L25.1134 17.8386C25.0828 17.8999 25.0633 17.9724 25.0493 18.056ZM25.4815 18.0226C25.4815 18.0226 25.3755 18.6276 25.3811 18.6778L25.1999 18.6443C25.1999 18.6443 25.3114 18.1146 25.3393 17.9975C25.2752 17.9836 25.1999 17.9891 25.1274 18.017L25.1999 17.8637L25.6934 17.9529L25.7268 18.1202C25.685 18.0783 25.5512 18.0337 25.4815 18.0198V18.0226Z" fill="#1D1D1B"/>
</g>
</g>
</g>
</g>
</g>
</svg>
