<svg xmlns="http://www.w3.org/2000/svg" width="30" height="30" viewBox="0 0 30 30" fill="none">
    <mask id="mask0_394_1133" style="mask-type:alpha" maskUnits="userSpaceOnUse" x="0" y="0" width="30" height="30">
        <rect width="30" height="30" fill="#D9D9D9"/>
    </mask>
    <g mask="url(#mask0_394_1133)">
        <path d="M15 27.1874C12.8878 27.1874 11.1618 26.8685 9.82209 26.2307C8.48236 25.5929 7.8125 24.766 7.8125 23.75C7.8125 23.141 8.0685 22.5998 8.5805 22.1262C9.09252 21.6526 9.79965 21.2636 10.7019 20.9591L11.2403 22.7452C10.8461 22.8894 10.5152 23.0516 10.2475 23.2319C9.97991 23.4122 9.80603 23.5849 9.72591 23.75C9.93264 24.1955 10.5476 24.5673 11.5708 24.8654C12.5941 25.1635 13.7371 25.3125 15 25.3125C16.2548 25.3125 17.399 25.1635 18.4327 24.8654C19.4664 24.5673 20.0865 24.1955 20.2932 23.75C20.2131 23.5849 20.0392 23.4142 19.7716 23.2379C19.504 23.0617 19.1731 22.8974 18.7788 22.7452L19.3293 20.9591C20.2315 21.2636 20.9335 21.6526 21.4351 22.1262C21.9366 22.5998 22.1874 23.141 22.1874 23.75C22.1874 24.766 21.5176 25.5929 20.1778 26.2307C18.8381 26.8685 17.1121 27.1874 15 27.1874ZM15 19.8053C15.375 19.0938 15.7948 18.4035 16.2596 17.7344C16.7243 17.0653 17.1907 16.4263 17.6587 15.8173C18.4455 14.7932 19.0741 13.8662 19.5445 13.036C20.0148 12.2059 20.25 11.1731 20.25 9.93747C20.25 8.48234 19.7388 7.24355 18.7163 6.22109C17.6939 5.19866 16.4551 4.68744 15 4.68744C13.5448 4.68744 12.3061 5.19866 11.2836 6.22109C10.2612 7.24355 9.74994 8.48234 9.74994 9.93747C9.74994 11.1731 9.98712 12.2059 10.4615 13.036C10.9359 13.8662 11.5624 14.7932 12.3413 15.8173C12.8092 16.4263 13.2756 17.0653 13.7403 17.7344C14.2051 18.4035 14.625 19.0938 15 19.8053ZM15 23.0528C14.7948 23.0528 14.6065 22.9851 14.4351 22.8497C14.2636 22.7143 14.1362 22.54 14.0529 22.3268C13.5416 20.9278 12.9335 19.7543 12.2283 18.8064C11.5232 17.8585 10.8429 16.9503 10.1875 16.0817C9.55286 15.2131 9.0088 14.3132 8.55528 13.3822C8.10176 12.4511 7.875 11.3028 7.875 9.93747C7.875 7.94228 8.5637 6.25599 9.94109 4.87859C11.3185 3.5012 13.0048 2.8125 15 2.8125C16.9952 2.8125 18.6814 3.5012 20.0588 4.87859C21.4362 6.25599 22.1249 7.94228 22.1249 9.93747C22.1249 11.3028 21.9034 12.4511 21.4603 13.3822C21.0172 14.3132 20.4679 15.2131 19.8125 16.0817C19.1778 16.9503 18.5028 17.8585 17.7872 18.8064C17.0717 19.7543 16.4583 20.9278 15.9471 22.3268C15.8637 22.54 15.7363 22.7143 15.5649 22.8497C15.3934 22.9851 15.2051 23.0528 15 23.0528ZM15 12.2211C15.633 12.2211 16.1718 11.9987 16.6165 11.554C17.0612 11.1093 17.2836 10.5705 17.2836 9.93747C17.2836 9.30447 17.0612 8.76561 16.6165 8.32091C16.1718 7.8762 15.633 7.65384 15 7.65384C14.367 7.65384 13.8281 7.8762 13.3834 8.32091C12.9387 8.76561 12.7163 9.30447 12.7163 9.93747C12.7163 10.5705 12.9387 11.1093 13.3834 11.554C13.8281 11.9987 14.367 12.2211 15 12.2211Z" fill="white"/>
    </g>
</svg>